<svg width="159" height="202" viewBox="0 0 159 202" fill="none" xmlns="http://www.w3.org/2000/svg">
<path fill-rule="evenodd" clip-rule="evenodd" d="M-9.38381 -93.8529C-6.3027 -94.1648 -1.12214 -94.233 1.96869 -94.1646L9.15986 -119L40.7364 -113.935L39.9297 -88.121C41.5113 -87.9487 47.5483 -85.5598 50.3692 -84.3869L66.072 -104.919L93.6886 -88.7966L83.6113 -64.9933C84.5783 -64.4119 89.6186 -59.9422 92.0178 -57.7801L114.006 -71.2338L134.025 -46.1629L116.041 -27.5697C116.614 -27.0915 119.722 -20.8923 121.204 -17.8524L146.618 -22.4362L156.196 8.18128L132.745 18.9877C133.186 20.6206 133.807 26.9842 134.063 29.9619L158 34.653V56.8162L157.385 66.9168L131.589 68.4462C131.682 69.1086 129.814 75.9048 128.868 79.22L150.737 92.965L137.207 122.052L112.646 114.172C112.265 115.169 108.211 120.623 106.231 123.225L121.706 143.966L98.6739 166.24L78.5298 150.01C77.6978 150.813 72.0404 154.449 69.3156 156.166L76.2463 181.031L46.7266 193.427L33.7446 170.987C31.8492 171.607 25.8218 172.812 23.0451 173.337L20.5492 199.132L-11.4883 200L-15.4585 174.446C-17.5321 174.364 -23.5655 173.264 -26.323 172.725L-38.0716 195.817L-68.137 185.076L-62.6556 159.793C-63.8494 159.287 -69.5241 155.862 -72.2122 154.213L-91.3784 171.53L-115.58 150.621L-101.349 129.023C-102.41 128.196 -106.44 122.962 -108.323 120.449L-132.382 129.679L-147.44 101.36L-126.351 86.3997C-127.492 84.0189 -129.093 78.3579 -129.75 75.825L-155.566 75.6208L-158 55.0475V43.5108L-134.375 37.5389C-134.463 34.1722 -133.952 28.7641 -133.685 26.4809L-157.7 17.0009L-149.818 -14.0708L-124.19 -10.8933C-123.677 -12.7979 -120.867 -18.378 -119.526 -20.9299L-138.563 -38.4664L-119.996 -64.6121L-97.2549 -52.4409C-96.3371 -53.7865 -91.5543 -58.1202 -89.2776 -60.1189L-100.709 -83.3052L-73.9899 -100.974L-57.1322 -81.3502C-53.7126 -83.1532 -50.2119 -84.6313 -46.9807 -85.616L-49.2101 -111.463L-17.9789 -118.209L-9.38381 -93.8529ZM-12.436 -67.8536C-136.882 -50.0119 -144.517 126.363 -12.436 149.104V-67.8536ZM12.8635 14.7886V-67.8354C99.8598 -55.4369 129.169 35.338 95.4084 93.7445L37.9335 46.1713C40.8928 32.6364 32.2635 15.6578 12.8635 14.7886ZM12.8682 66.1587V148.823C43.7233 145.692 71.2548 127.323 85.8484 107.957L28.8966 60.5292C21.4301 66.4317 14.1329 66.1587 12.8682 66.1587ZM12.8635 57.1367C33.9977 56.887 35.499 25.0166 12.8635 23.8426V57.1367Z" fill="white" fill-opacity="0.03"/>
<path d="M14.0789 48.8274C24.1764 48.8274 26.2174 33.3675 14.0789 32.1016V48.8274Z" fill="white" fill-opacity="0.03"/>
<path d="M13.5789 48.8274V49.3274H14.0789C19.4344 49.3274 22.6474 45.2124 22.9164 40.9708C23.0512 38.8458 22.4523 36.6649 21.0037 34.9287C19.5511 33.1877 17.2761 31.9323 14.1308 31.6043L13.5789 31.5468V32.1016V48.8274ZM132.03 69.0482C132.038 69.0039 132.045 68.961 132.052 68.9197L157.414 67.416L157.857 67.3897L157.884 66.9472L158.499 56.8466L158.5 56.8314V56.8162V34.653V34.2415L158.096 34.1623L134.528 29.5437C134.397 28.0523 134.194 25.9129 133.97 23.9149C133.762 22.0547 133.533 20.2762 133.324 19.2712L156.405 8.63538L156.804 8.45145L156.673 8.032L147.095 -22.5854L146.963 -23.0065L146.529 -22.9282L121.488 -18.4116C120.747 -19.9247 119.687 -22.051 118.725 -23.9022C118.207 -24.8989 117.716 -25.82 117.316 -26.5239C117.117 -26.8753 116.937 -27.1778 116.787 -27.4105C116.759 -27.4542 116.731 -27.4961 116.704 -27.5359L134.384 -45.8153L134.69 -46.1313L134.416 -46.4749L114.397 -71.5458L114.122 -71.8906L113.745 -71.6603L92.0751 -58.4013C90.8765 -59.4788 89.1644 -61.0023 87.6054 -62.3569C86.7637 -63.0882 85.9646 -63.7719 85.3141 -64.3102C84.8912 -64.6602 84.5166 -64.961 84.2304 -65.1731L94.149 -88.6017L94.3205 -89.0067L93.9407 -89.2284L66.3241 -105.35L65.943 -105.573L65.6749 -105.222L50.2055 -84.9959C48.7911 -85.5793 46.7601 -86.3913 44.8589 -87.0979C43.8257 -87.4818 42.8266 -87.8362 41.9839 -88.106C41.3968 -88.2939 40.8644 -88.448 40.443 -88.5393L41.2362 -113.919L41.2499 -114.359L40.8156 -114.428L9.23906 -119.494L8.80254 -119.564L8.67958 -119.139L1.59509 -94.6721C-1.40187 -94.7249 -6.03314 -94.6587 -9.04233 -94.3877L-17.5074 -118.376L-17.6539 -118.791L-18.0844 -118.698L-49.3157 -111.952L-49.7461 -111.859L-49.7083 -111.421L-47.5135 -85.9744C-50.5581 -85.0163 -53.8173 -83.6385 -57.0119 -81.9775L-73.6106 -101.3L-73.8979 -101.634L-74.2657 -101.391L-100.984 -83.7222L-101.352 -83.4792L-101.157 -83.0841L-89.8954 -60.2412C-91.0331 -59.2372 -92.6473 -57.7841 -94.1186 -56.3991C-94.9185 -55.6461 -95.6791 -54.9105 -96.2989 -54.2768C-96.7369 -53.829 -97.1184 -53.4183 -97.3941 -53.0825L-119.76 -65.0529L-120.148 -65.2608L-120.403 -64.9016L-138.971 -38.756L-139.226 -38.397L-138.902 -38.0987L-120.147 -20.822C-120.817 -19.5382 -121.761 -17.678 -122.62 -15.8847C-123.433 -14.1865 -124.188 -12.5078 -124.545 -11.4411L-149.756 -14.567L-150.194 -14.6213L-150.303 -14.1937L-158.184 16.8779L-158.292 17.3044L-157.883 17.4659L-134.226 26.8052C-134.49 29.1695 -134.922 33.9193 -134.882 37.1515L-158.123 43.026L-158.5 43.1215V43.5108V55.0475V55.077L-158.497 55.1062L-156.063 75.6796L-156.011 76.1173L-155.57 76.1208L-130.137 76.3219C-129.468 78.8569 -128.069 83.7532 -126.978 86.2316L-147.729 100.952L-148.087 101.207L-147.881 101.595L-132.823 129.914L-132.615 130.304L-132.202 130.146L-108.496 121.051C-107.552 122.305 -106.192 124.082 -104.919 125.68C-104.229 126.545 -103.563 127.361 -103 128.014C-102.625 128.449 -102.282 128.83 -102.002 129.106L-115.998 150.346L-116.239 150.713L-115.907 151L-91.7053 171.908L-91.371 172.197L-91.0432 171.901L-72.1546 154.835C-70.8112 155.657 -68.8901 156.82 -67.128 157.862C-65.5361 158.803 -64.0395 159.666 -63.2283 160.075L-68.6257 184.97L-68.7187 185.399L-68.3052 185.546L-38.2398 196.288L-37.8255 196.436L-37.6259 196.044L-26.0484 173.288C-24.662 173.555 -22.6539 173.927 -20.7166 174.25C-18.8559 174.56 -17.0311 174.832 -15.8907 174.92L-11.9824 200.077L-11.9148 200.512L-11.4748 200.5L20.5627 199.632L21.0043 199.62L21.0469 199.18L23.5067 173.758C26.2257 173.239 31.355 172.208 33.5109 171.582L46.2938 193.677L46.5143 194.058L46.9202 193.888L76.4399 181.492L76.8463 181.321L76.728 180.896L69.8972 156.39C71.2561 155.531 73.1829 154.298 74.9075 153.163C75.8385 152.549 76.7129 151.963 77.408 151.479C77.8603 151.164 78.2533 150.881 78.5372 150.658L98.3602 166.629L98.7041 166.906L99.0215 166.599L122.054 144.325L122.37 144.019L122.107 143.667L106.857 123.228C107.843 121.928 109.228 120.073 110.443 118.389C111.099 117.481 111.707 116.619 112.176 115.92C112.411 115.571 112.613 115.258 112.769 114.999C112.815 114.923 112.859 114.849 112.9 114.778L137.054 122.528L137.474 122.663L137.66 122.263L151.19 93.1758L151.376 92.7762L151.003 92.5416L129.451 78.9963C129.92 77.3446 130.567 75.0117 131.102 72.9647C131.389 71.8647 131.645 70.8433 131.824 70.0531C131.913 69.6587 131.984 69.3163 132.03 69.0482ZM-12.9361 148.509C-143.624 125.485 -136.109 -49.0819 -12.9361 -67.2755V148.509ZM38.4854 45.9791C41.2865 32.3515 32.6433 15.4461 13.3635 14.3138V-67.2579C99.2718 -54.6378 128.335 34.9555 95.2701 92.981L38.4854 45.9791ZM13.3682 66.6606C15.4795 66.6568 22.0846 66.3952 28.8862 61.1712L85.1613 108.035C70.6582 127.047 43.6465 145.013 13.3682 148.268V66.6606ZM13.3635 56.6244V24.3752C18.6266 24.7677 22.4732 26.8832 25.0056 29.8308C27.6281 32.8832 28.8686 36.8605 28.7773 40.8247C28.5977 48.6212 23.2871 56.2581 13.3635 56.6244Z" stroke="#2F70E0" stroke-opacity="0.6"/>
</svg>
