<svg width="156" height="300" viewBox="0 0 156 300" fill="none" xmlns="http://www.w3.org/2000/svg">
<g opacity="0.07">
<path d="M153.243 191.924H142.82V197.171V202.419H153.243V191.924Z" fill="white"/>
<path d="M127.515 109.292H117.224V114.53V119.653H127.515V114.649V109.292Z" fill="white"/>
<path d="M112.531 9.63612H122.754V19.9289H112.531V9.63612Z" fill="white"/>
<path d="M95.9492 78.1532C95.9616 78.0623 95.9681 77.9694 95.9681 77.875C95.9681 76.7611 95.0713 75.8582 93.9651 75.8582C92.8944 75.8582 92.0199 76.704 91.9648 77.7683C91.963 77.8036 91.962 77.8392 91.962 77.875C91.962 78.9731 92.8337 79.8663 93.9185 79.8912C93.9339 79.8916 93.9495 79.8918 93.9651 79.8918C94.9775 79.8918 95.8145 79.1354 95.9492 78.1532Z" fill="white"/>
<path d="M75.1114 79.7832C76.1878 79.7832 77.0605 78.9046 77.0605 77.8207C77.0605 77.8032 77.0603 77.7857 77.0598 77.7683C77.0322 76.7086 76.1704 75.8582 75.1114 75.8582C74.0349 75.8582 73.1622 76.7368 73.1622 77.8207C73.1622 78.9046 74.0349 79.7832 75.1114 79.7832Z" fill="white"/>
<path d="M126.062 78.1479C126.074 78.0586 126.08 77.9675 126.08 77.875C126.08 76.7611 125.184 75.8582 124.077 75.8582C124.025 75.8582 123.973 75.8602 123.921 75.8642C122.888 75.9444 122.074 76.814 122.074 77.875C122.074 77.9694 122.081 78.0623 122.093 78.1532C122.228 79.1354 123.065 79.8918 124.077 79.8918C125.092 79.8918 125.93 79.1326 126.062 78.1479Z" fill="white"/>
<path d="M124.077 70.064C125.638 70.064 126.902 68.7905 126.902 67.2196C126.902 67.1881 126.902 67.1568 126.901 67.1256C126.852 65.5982 125.606 64.3751 124.077 64.3751C124.039 64.3751 124.001 64.3759 123.962 64.3774C122.455 64.4381 121.252 65.6874 121.252 67.2196C121.252 68.7378 122.434 69.9782 123.921 70.0598C123.973 70.0626 124.025 70.064 124.077 70.064Z" fill="white"/>
<path d="M124.077 30.3097C125.298 30.3097 126.287 29.3134 126.287 28.0845C126.287 26.8555 125.298 25.8593 124.077 25.8593C122.857 25.8593 121.867 26.8555 121.867 28.0845C121.867 29.2746 122.795 30.2465 123.962 30.3067C124 30.3087 124.039 30.3097 124.077 30.3097Z" fill="white"/>
<path d="M129.354 7.5385C130.575 7.5385 131.564 6.54224 131.564 5.31329C131.564 4.08434 130.575 3.08808 129.354 3.08808C128.134 3.08808 127.144 4.08434 127.144 5.31329V5.31699C127.146 6.54424 128.135 7.5385 129.354 7.5385Z" fill="white"/>
<path d="M106.477 5.31699V5.31329C106.477 4.08434 105.487 3.08808 104.267 3.08808C103.046 3.08808 102.057 4.08434 102.057 5.31329C102.057 6.54224 103.046 7.5385 104.267 7.5385C105.486 7.5385 106.475 6.54424 106.477 5.31699Z" fill="white"/>
<path d="M83.043 117.366C84.4906 117.282 85.6389 116.074 85.6389 114.595C85.6389 114.574 85.6387 114.553 85.6382 114.532C85.6046 113.028 84.3838 111.82 82.8826 111.82C81.3604 111.82 80.1263 113.063 80.1263 114.595C80.1263 116.128 81.3604 117.37 82.8826 117.37C82.9365 117.37 82.99 117.369 83.043 117.366Z" fill="white"/>
<path d="M75.2599 130.89C76.267 130.814 77.0605 129.967 77.0605 128.933C77.0605 127.849 76.1878 126.971 75.1114 126.971C74.0349 126.971 73.1622 127.849 73.1622 128.933C73.1622 130.017 74.0349 130.896 75.1114 130.896C75.1613 130.896 75.2109 130.894 75.2599 130.89Z" fill="white"/>
<path d="M60.8562 143.797C60.8628 143.725 60.8661 143.652 60.8661 143.579C60.8661 142.278 59.819 141.224 58.5273 141.224C57.2356 141.224 56.1884 142.278 56.1884 143.579C56.1884 144.879 57.2356 145.933 58.5273 145.933C59.7458 145.933 60.7467 144.995 60.8562 143.797Z" fill="white"/>
<path d="M82.8826 145.381C83.8714 145.381 84.673 144.574 84.673 143.579C84.673 142.583 83.8714 141.776 82.8826 141.776C81.8938 141.776 81.0923 142.583 81.0923 143.579C81.0923 143.653 81.0967 143.725 81.1053 143.797C81.2124 144.69 81.9673 145.381 82.8826 145.381Z" fill="white"/>
<path d="M93.9651 128.987C95.0713 128.987 95.9681 128.084 95.9681 126.971C95.9681 126.919 95.9661 126.867 95.9623 126.816C95.8841 125.775 95.0198 124.954 93.9651 124.954C93.9495 124.954 93.9339 124.954 93.9185 124.954C92.8337 124.979 91.962 125.872 91.962 126.971C91.962 128.084 92.8588 128.987 93.9651 128.987Z" fill="white"/>
<path d="M114.863 145.742C115.714 145.742 116.404 145.047 116.404 144.19C116.404 143.333 115.714 142.638 114.863 142.638C114.843 142.638 114.824 142.638 114.804 142.639C113.98 142.67 113.321 143.353 113.321 144.19C113.321 145.047 114.011 145.742 114.863 145.742Z" fill="white"/>
<path d="M124.868 149.038C125.719 149.038 126.41 148.343 126.41 147.486C126.41 146.628 125.719 145.933 124.868 145.933C124.017 145.933 123.326 146.628 123.326 147.486C123.326 147.552 123.331 147.618 123.339 147.682C123.428 148.396 123.999 148.959 124.714 149.03C124.764 149.035 124.816 149.038 124.868 149.038Z" fill="white"/>
<path d="M83.0898 162.405C83.7915 162.405 84.3604 161.833 84.3604 161.126C84.3604 160.419 83.7915 159.847 83.0898 159.847C82.3881 159.847 81.8192 160.419 81.8192 161.126C81.8192 161.833 82.3881 162.405 83.0898 162.405Z" fill="white"/>
<path d="M126.373 166.935C126.397 166.827 126.41 166.714 126.41 166.599C126.41 165.742 125.719 165.047 124.868 165.047C124.816 165.047 124.764 165.05 124.714 165.055C123.935 165.133 123.326 165.794 123.326 166.599C123.326 167.456 124.017 168.151 124.868 168.151C125.605 168.151 126.221 167.631 126.373 166.935Z" fill="white"/>
<path d="M150.766 160.47C152.276 160.47 153.501 159.237 153.501 157.717C153.501 156.196 152.276 154.963 150.766 154.963C150.628 154.963 150.492 154.973 150.359 154.993C149.042 155.191 148.031 156.335 148.031 157.717C148.031 157.83 148.038 157.942 148.051 158.052C148.216 159.415 149.369 160.47 150.766 160.47Z" fill="white"/>
<path d="M150.766 117.226C152.276 117.226 153.501 115.994 153.501 114.473C153.501 112.952 152.276 111.719 150.766 111.719C149.256 111.719 148.031 112.952 148.031 114.473C148.031 114.497 148.031 114.521 148.032 114.545C148.066 115.884 149.049 116.985 150.33 117.192C150.472 117.214 150.617 117.226 150.766 117.226Z" fill="white"/>
<path d="M75.3033 180.851C76.4935 180.851 77.4583 179.88 77.4583 178.681C77.4583 177.483 76.4935 176.512 75.3033 176.512C75.2888 176.512 75.2743 176.512 75.2599 176.512C74.0897 176.535 73.1483 177.498 73.1483 178.681C73.1483 178.783 73.1553 178.884 73.1688 178.982C73.3143 180.038 74.2145 180.851 75.3033 180.851Z" fill="white"/>
<path d="M47.4771 178.982C47.4906 178.884 47.4976 178.783 47.4976 178.681C47.4976 177.483 46.5328 176.512 45.3426 176.512C44.1524 176.512 43.1876 177.483 43.1876 178.681C43.1876 179.88 44.1524 180.851 45.3426 180.851C45.3543 180.851 45.366 180.851 45.3777 180.851C46.4507 180.834 47.3332 180.027 47.4771 178.982Z" fill="white"/>
<path d="M30.6528 205.556C30.6548 205.514 30.6558 205.471 30.6558 205.428C30.6558 203.958 29.4718 202.766 28.0112 202.766C26.5507 202.766 25.3667 203.958 25.3667 205.428C25.3667 206.899 26.5507 208.091 28.0112 208.091C28.1822 208.091 28.3493 208.075 28.5112 208.044C29.6924 207.816 30.5946 206.797 30.6528 205.556Z" fill="white"/>
<path d="M28.0112 236.061C28.974 236.061 29.7545 235.275 29.7545 234.306C29.7545 233.511 29.2303 232.84 28.5112 232.624C28.3528 232.576 28.185 232.55 28.0112 232.55C27.0484 232.55 26.2679 233.336 26.2679 234.306C26.2679 234.413 26.2775 234.517 26.2957 234.619C26.4426 235.439 27.1548 236.061 28.0112 236.061Z" fill="white"/>
<path d="M6.14298 234.619C6.15648 234.517 6.16345 234.412 6.16345 234.306C6.16345 232.999 5.11176 231.94 3.81442 231.94C2.51709 231.94 1.46539 232.999 1.46539 234.306C1.46539 235.612 2.51709 236.671 3.81442 236.671C5.00615 236.671 5.9906 235.777 6.14298 234.619Z" fill="white"/>
<path d="M36.5276 250.761C36.5334 250.707 36.5363 250.652 36.5363 250.596C36.5363 249.753 35.8581 249.071 35.0214 249.071C34.1847 249.071 33.5065 249.753 33.5065 250.596C33.5065 251.438 34.1847 252.121 35.0214 252.121C35.8027 252.121 36.4459 251.526 36.5276 250.761Z" fill="white"/>
<path d="M73.0046 229.181C73.8413 229.181 74.5196 228.498 74.5196 227.655C74.5196 226.813 73.8413 226.13 73.0046 226.13C72.2227 226.13 71.5791 226.726 71.4983 227.492C71.4926 227.546 71.4897 227.6 71.4897 227.655C71.4897 228.498 72.1679 229.181 73.0046 229.181Z" fill="white"/>
<path d="M45.3926 229.876C46.6104 229.876 47.5977 228.882 47.5977 227.655C47.5977 227.6 47.5957 227.546 47.5918 227.492C47.5089 226.342 46.5559 225.435 45.3926 225.435C45.3876 225.435 45.3827 225.435 45.3777 225.435C44.1667 225.443 43.1876 226.434 43.1876 227.655C43.1876 228.882 44.1748 229.876 45.3926 229.876Z" fill="white"/>
<path d="M66.2288 252.121C67.0655 252.121 67.7437 251.438 67.7437 250.596C67.7437 249.753 67.0655 249.071 66.2288 249.071C65.3921 249.071 64.7139 249.753 64.7139 250.596C64.7139 250.652 64.7168 250.707 64.7226 250.761C64.8044 251.526 65.4475 252.121 66.2288 252.121Z" fill="white"/>
<path d="M66.2288 271.491C67.0655 271.491 67.7437 270.809 67.7437 269.966C67.7437 269.92 67.7417 269.874 67.7377 269.829C67.6689 269.051 67.0192 268.441 66.2288 268.441C65.3921 268.441 64.7139 269.124 64.7139 269.966C64.7139 270.809 65.3921 271.491 66.2288 271.491Z" fill="white"/>
<path d="M96.7073 271.491C97.5439 271.491 98.2222 270.809 98.2222 269.966C98.2222 269.124 97.5439 268.441 96.7073 268.441C95.9165 268.441 95.2672 269.051 95.1984 269.829C95.1944 269.874 95.1923 269.92 95.1923 269.966C95.1923 270.809 95.8706 271.491 96.7073 271.491Z" fill="white"/>
<path d="M107.406 264.906C107.413 264.826 107.416 264.745 107.416 264.663C107.416 263.104 106.161 261.84 104.613 261.84C103.064 261.84 101.809 263.104 101.809 264.663C101.809 266.222 103.064 267.486 104.613 267.486C104.641 267.486 104.669 267.485 104.696 267.485C106.125 267.442 107.286 266.324 107.406 264.906Z" fill="white"/>
<path d="M107.868 258.059C108.704 258.059 109.383 257.376 109.383 256.534C109.383 255.691 108.704 255.009 107.868 255.009C107.031 255.009 106.353 255.691 106.353 256.534C106.353 257.376 107.031 258.059 107.868 258.059Z" fill="white"/>
<path d="M95.7067 250.596C97.2033 250.596 98.4166 249.374 98.4166 247.867C98.4166 246.533 97.4645 245.422 96.2067 245.185C96.0447 245.155 95.8775 245.139 95.7067 245.139C94.2101 245.139 92.9969 246.361 92.9969 247.867C92.9969 249.374 94.2101 250.596 95.7067 250.596Z" fill="white"/>
<path d="M82.3457 293.714C82.3477 293.676 82.3487 293.637 82.3487 293.598C82.3487 292.367 81.3576 291.369 80.1351 291.369C78.9125 291.369 77.9214 292.367 77.9214 293.598C77.9214 294.829 78.9125 295.826 80.1351 295.826C81.3187 295.826 82.2854 294.891 82.3457 293.714Z" fill="white"/>
<path d="M104.613 295.389C105.595 295.389 106.392 294.587 106.392 293.598C106.392 292.637 105.64 291.852 104.696 291.808C104.669 291.807 104.641 291.806 104.613 291.806C103.63 291.806 102.834 292.608 102.834 293.598C102.834 293.637 102.835 293.676 102.837 293.714C102.897 294.649 103.669 295.389 104.613 295.389Z" fill="white"/>
<path d="M106.664 227.348C106.665 227.315 106.666 227.281 106.666 227.247C106.666 226.105 105.747 225.18 104.613 225.18C103.479 225.18 102.559 226.105 102.559 227.247C102.559 228.389 103.479 229.315 104.613 229.315C105.713 229.315 106.611 228.443 106.664 227.348Z" fill="white"/>
<path d="M129.481 229.315C130.615 229.315 131.534 228.389 131.534 227.247C131.534 226.105 130.615 225.18 129.481 225.18C129.308 225.18 129.141 225.201 128.981 225.242C128.088 225.466 127.427 226.279 127.427 227.247C127.427 227.281 127.428 227.315 127.43 227.348C127.473 228.247 128.154 229.007 128.981 229.247C129.161 229.299 129.283 229.315 129.481 229.315Z" fill="white"/>
<path d="M96.2067 208.055C97.4645 207.818 98.4166 206.707 98.4166 205.372C98.4166 203.866 97.2033 202.644 95.7067 202.644C94.2101 202.644 92.9969 203.866 92.9969 205.372C92.9969 205.407 92.9975 205.441 92.9987 205.474C93.052 206.934 94.244 208.101 95.7067 208.101C95.8775 208.101 96.0447 208.085 96.2067 208.055Z" fill="white"/>
<path d="M104.558 185.298C104.558 185.286 104.558 185.275 104.558 185.263C104.558 184.557 103.99 183.984 103.288 183.984C102.586 183.984 102.017 184.557 102.017 185.263C102.017 185.97 102.586 186.543 103.288 186.543C103.978 186.543 104.54 185.988 104.558 185.298Z" fill="white"/>
<path d="M126.41 186.543C127.111 186.543 127.68 185.97 127.68 185.263C127.68 184.557 127.111 183.984 126.41 183.984C125.708 183.984 125.139 184.557 125.139 185.263C125.139 185.275 125.139 185.286 125.139 185.298C125.157 185.988 125.719 186.543 126.41 186.543Z" fill="white"/>
<path d="M134.623 176.315C135.324 176.315 135.893 175.742 135.893 175.036C135.893 174.329 135.324 173.756 134.623 173.756C133.921 173.756 133.352 174.329 133.352 175.036C133.352 175.742 133.921 176.315 134.623 176.315Z" fill="white"/>
<path d="M103.402 171.6C104.05 171.542 104.558 170.994 104.558 170.326C104.558 169.619 103.99 169.046 103.288 169.046C102.586 169.046 102.017 169.619 102.017 170.326C102.017 171.032 102.586 171.605 103.288 171.605C103.326 171.605 103.364 171.603 103.402 171.6Z" fill="white"/>
<path d="M67.9411 143.797V148.821H75.2599H78.3554V143.797V138.336H75.2599H67.9411V143.797Z" fill="white"/>
<path d="M114.863 128.523C115.714 128.523 116.404 127.828 116.404 126.971C116.404 126.919 116.402 126.867 116.397 126.816C116.32 126.032 115.662 125.418 114.863 125.418C114.063 125.418 113.406 126.032 113.329 126.816C113.324 126.867 113.321 126.919 113.321 126.971C113.321 127.808 113.98 128.491 114.804 128.522C114.824 128.522 114.843 128.523 114.863 128.523Z" fill="white"/>
<path d="M92.4235 147.486C92.4235 148.343 93.1137 149.038 93.965 149.038C93.976 149.038 93.9868 149.038 93.9977 149.037C94.7682 149.021 95.3998 148.436 95.4944 147.682C95.5025 147.618 95.5066 147.552 95.5066 147.486C95.5066 146.628 94.8164 145.933 93.965 145.933C93.1137 145.933 92.4235 146.628 92.4235 147.486Z" fill="white"/>
<path d="M20.8301 229.876H10.4075V234.619V240.37H20.8301V234.619V229.876Z" fill="white"/>
<path d="M136.423 260.487H126.645V264.906V270.332H136.423V264.906V260.487Z" fill="white"/>
<path d="M76.6515 200.181H66.2288V205.509V210.675H76.6515V205.496V200.181Z" fill="white"/>
<path d="M112.531 9.63612V9.13612H112.031V9.63612H112.531ZM122.754 9.63612H123.254V9.13612H122.754V9.63612ZM122.754 19.9289V20.4289H123.254V19.9289H122.754ZM112.531 19.9289H112.031V20.4289H112.531V19.9289ZM150.766 78.1479H151.266V77.6479H150.766V78.1479ZM117.224 109.292V108.792H116.724V109.292H117.224ZM127.515 109.292H128.015V108.792H127.515V109.292ZM127.515 119.653V120.153H128.015V119.653H127.515ZM117.224 119.653H116.724V120.153H117.224V119.653ZM67.9411 138.336V137.836H67.4411V138.336H67.9411ZM78.3554 138.336H78.8554V137.836H78.3554V138.336ZM78.3554 148.821V149.321H78.8554V148.821H78.3554ZM67.9411 148.821H67.4411V149.321H67.9411V148.821ZM138.094 127.316C138.37 127.316 138.594 127.093 138.594 126.816C138.594 126.54 138.37 126.316 138.094 126.316V127.316ZM93.9977 161.126V161.626H94.4977V161.126H93.9977ZM138.094 158.052L137.594 158.052L137.594 158.552H138.094V158.052ZM138.594 126.969C138.594 126.693 138.37 126.469 138.094 126.469C137.818 126.469 137.594 126.693 137.594 126.969L138.594 126.969ZM75.3032 169.826C75.027 169.826 74.8032 170.049 74.8032 170.326C74.8032 170.602 75.027 170.826 75.3032 170.826V169.826ZM126.41 175.036V174.536H125.91L125.91 175.036L126.41 175.036ZM134.623 181.151L134.123 181.151L134.123 181.651H134.623V181.151ZM66.2288 200.181V199.681H65.7288V200.181H66.2288ZM76.6515 200.181H77.1515V199.681H76.6515V200.181ZM76.6515 210.675V211.175H77.1515V210.675H76.6515ZM66.2288 210.675H65.7288V211.175H66.2288V210.675ZM142.82 191.924V191.424H142.32V191.924H142.82ZM153.243 191.924H153.743V191.424H153.243V191.924ZM153.243 202.419V202.919H153.743V202.419H153.243ZM142.82 202.419H142.32V202.919H142.82V202.419ZM10.4075 229.876V229.376H9.90747V229.876H10.4075ZM20.8301 229.876H21.3301V229.376H20.8301V229.876ZM20.8301 240.37V240.87H21.3301V240.37H20.8301ZM10.4075 240.37H9.90747V240.87H10.4075V240.37ZM95.7067 197.171V196.671H95.2067V197.171H95.7067ZM128.981 240.836H128.481V241.336H128.981V240.836ZM155.654 248.367C155.93 248.367 156.154 248.144 156.154 247.867C156.154 247.591 155.93 247.367 155.654 247.367V248.367ZM96.7072 256.534L96.7072 256.034L96.2072 256.034L96.2072 256.534L96.7072 256.534ZM126.645 260.487V259.987H126.145V260.487H126.645ZM136.423 260.487H136.923V259.987H136.423V260.487ZM136.423 270.332V270.832H136.923V270.332H136.423ZM126.645 270.332H126.145V270.832H126.645V270.332ZM155.654 265.406C155.93 265.406 156.154 265.182 156.154 264.906C156.154 264.63 155.93 264.406 155.654 264.406V265.406ZM91.9648 77.7683L92.4641 77.7942L92.4641 77.7941L91.9648 77.7683ZM126.901 67.1256L126.401 67.1417L126.401 67.1418L126.901 67.1256ZM123.921 70.0598L123.949 69.5605L123.949 69.5605L123.921 70.0598ZM123.962 30.3067L123.988 29.8074L123.988 29.8074L123.962 30.3067ZM95.9623 126.816L95.4637 126.854L95.4637 126.854L95.9623 126.816ZM116.397 126.816L115.899 126.865L115.899 126.865L116.397 126.816ZM113.329 126.816L113.826 126.865L113.826 126.865L113.329 126.816ZM114.804 128.522L114.823 128.022L114.823 128.022L114.804 128.522ZM93.9977 149.037L93.9872 148.538L93.9871 148.538L93.9977 149.037ZM126.373 166.935L125.885 166.828L125.885 166.828L126.373 166.935ZM150.359 154.993L150.434 155.488L150.434 155.488L150.359 154.993ZM148.032 114.545L148.532 114.532L148.532 114.532L148.032 114.545ZM150.33 117.192L150.409 116.698L150.409 116.698L150.33 117.192ZM75.2599 176.512L75.2698 177.012L75.27 177.012L75.2599 176.512ZM6.14298 234.619L5.64725 234.554L5.64725 234.554L6.14298 234.619ZM36.5276 250.761L36.0304 250.708L36.0304 250.708L36.5276 250.761ZM64.7226 250.761L65.2198 250.708L65.2198 250.708L64.7226 250.761ZM67.7377 269.829L67.2396 269.873L67.2396 269.873L67.7377 269.829ZM95.1984 269.829L95.6964 269.873L95.6964 269.873L95.1984 269.829ZM107.406 264.906L106.908 264.864L106.908 264.864L107.406 264.906ZM104.696 267.485L104.682 266.985L104.681 266.985L104.696 267.485ZM82.3457 293.714L81.8463 293.689L81.8463 293.689L82.3457 293.714ZM102.837 293.714L103.336 293.682L103.336 293.682L102.837 293.714ZM127.43 227.348L127.929 227.325L127.929 227.325L127.43 227.348ZM92.9987 205.474L93.4984 205.456L93.4984 205.456L92.9987 205.474ZM104.558 185.298L104.058 185.285L104.058 185.285L104.558 185.298ZM125.139 185.298L125.639 185.285L125.639 185.285L125.139 185.298ZM103.402 171.6L103.357 171.102L103.357 171.102L103.402 171.6ZM96.7073 262.487L97.2073 262.487L96.7073 262.487ZM74.0746 248.235L74.0843 248.734L74.0746 248.235ZM73.0552 247.238L72.5552 247.239L73.0552 247.238ZM104.267 7.0385C103.325 7.0385 102.557 6.26933 102.557 5.31329H101.557C101.557 6.81515 102.767 8.0385 104.267 8.0385V7.0385ZM102.557 5.31329C102.557 4.35725 103.325 3.58808 104.267 3.58808V2.58808C102.767 2.58808 101.557 3.81143 101.557 5.31329H102.557ZM104.267 3.58808C105.208 3.58808 105.977 4.35725 105.977 5.31329H106.977C106.977 3.81143 105.767 2.58808 104.267 2.58808V3.58808ZM131.064 5.31329C131.064 6.26933 130.296 7.0385 129.354 7.0385V8.0385C130.854 8.0385 132.064 6.81515 132.064 5.31329H131.064ZM127.644 5.31329C127.644 4.35725 128.413 3.58808 129.354 3.58808V2.58808C127.854 2.58808 126.644 3.81143 126.644 5.31329H127.644ZM129.354 3.58808C130.296 3.58808 131.064 4.35725 131.064 5.31329H132.064C132.064 3.81143 130.854 2.58808 129.354 2.58808V3.58808ZM109.044 5.31329C109.044 7.97483 106.902 10.1266 104.267 10.1266V11.1266C107.46 11.1266 110.044 8.52065 110.044 5.31329H109.044ZM104.267 10.1266C101.632 10.1266 99.4896 7.97483 99.4896 5.31329H98.4896C98.4896 8.52065 101.073 11.1266 104.267 11.1266V10.1266ZM99.4896 5.31329C99.4896 2.65175 101.632 0.5 104.267 0.5V-0.5C101.073 -0.5 98.4896 2.10593 98.4896 5.31329H99.4896ZM104.267 0.5C106.902 0.5 109.044 2.65175 109.044 5.31329H110.044C110.044 2.10593 107.46 -0.5 104.267 -0.5V0.5ZM134.131 5.31329C134.131 7.97483 131.989 10.1266 129.354 10.1266V11.1266C132.548 11.1266 135.131 8.52065 135.131 5.31329H134.131ZM129.354 10.1266C126.719 10.1266 124.577 7.97483 124.577 5.31329H123.577C123.577 8.52065 126.161 11.1266 129.354 11.1266V10.1266ZM124.577 5.31329C124.577 2.65175 126.719 0.5 129.354 0.5V-0.5C126.161 -0.5 123.577 2.10593 123.577 5.31329H124.577ZM129.354 0.5C131.989 0.5 134.131 2.65175 134.131 5.31329H135.131C135.131 2.10593 132.548 -0.5 129.354 -0.5V0.5ZM125.787 28.0845C125.787 29.0405 125.018 29.8097 124.077 29.8097V30.8097C125.577 30.8097 126.787 29.5863 126.787 28.0845H125.787ZM122.367 28.0845C122.367 27.1284 123.136 26.3593 124.077 26.3593V25.3593C122.577 25.3593 121.367 26.5826 121.367 28.0845H122.367ZM124.077 26.3593C125.018 26.3593 125.787 27.1284 125.787 28.0845H126.787C126.787 26.5826 125.577 25.3593 124.077 25.3593V26.3593ZM126.402 67.2196C126.402 68.5176 125.358 69.564 124.077 69.564V70.564C125.917 70.564 127.402 69.0634 127.402 67.2196H126.402ZM124.077 76.3582C124.904 76.3582 125.58 77.0341 125.58 77.875H126.58C126.58 76.4882 125.463 75.3582 124.077 75.3582V76.3582ZM153.001 114.473C153.001 115.721 151.997 116.726 150.766 116.726V117.726C152.556 117.726 154.001 116.266 154.001 114.473H153.001ZM148.531 114.473C148.531 113.225 149.535 112.219 150.766 112.219V111.219C148.976 111.219 147.531 112.679 147.531 114.473H148.531ZM150.766 112.219C151.997 112.219 153.001 113.225 153.001 114.473H154.001C154.001 112.679 152.556 111.219 150.766 111.219V112.219ZM153.001 157.717C153.001 158.964 151.997 159.97 150.766 159.97V160.97C152.556 160.97 154.001 159.51 154.001 157.717H153.001ZM150.766 155.463C151.997 155.463 153.001 156.469 153.001 157.717H154.001C154.001 155.923 152.556 154.463 150.766 154.463V155.463ZM93.9651 76.3582C94.7919 76.3582 95.4681 77.0341 95.4681 77.875H96.4681C96.4681 76.4882 95.3507 75.3582 93.9651 75.3582V76.3582ZM95.4681 126.971C95.4681 127.811 94.7919 128.487 93.9651 128.487V129.487C95.3507 129.487 96.4681 128.357 96.4681 126.971H95.4681ZM93.9651 128.487C93.1382 128.487 92.462 127.811 92.462 126.971H91.462C91.462 128.357 92.5795 129.487 93.9651 129.487V128.487ZM115.904 126.971C115.904 127.555 115.435 128.023 114.863 128.023V129.023C115.994 129.023 116.904 128.101 116.904 126.971H115.904ZM115.904 144.19C115.904 144.775 115.435 145.242 114.863 145.242V146.242C115.994 146.242 116.904 145.32 116.904 144.19H115.904ZM114.863 145.242C114.291 145.242 113.821 144.775 113.821 144.19H112.821C112.821 145.32 113.732 146.242 114.863 146.242V145.242ZM114.863 143.138C115.435 143.138 115.904 143.606 115.904 144.19H116.904C116.904 143.06 115.994 142.138 114.863 142.138V143.138ZM93.965 148.538C93.393 148.538 92.9235 148.07 92.9235 147.486H91.9235C91.9235 148.616 92.8343 149.538 93.965 149.538V148.538ZM92.9235 147.486C92.9235 146.901 93.393 146.433 93.965 146.433V145.433C92.8343 145.433 91.9235 146.355 91.9235 147.486H92.9235ZM93.965 146.433C94.5371 146.433 95.0066 146.901 95.0066 147.486H96.0066C96.0066 146.355 95.0958 145.433 93.965 145.433V146.433ZM83.8604 161.126C83.8604 161.56 83.5122 161.905 83.0898 161.905V162.905C84.0709 162.905 84.8604 162.105 84.8604 161.126H83.8604ZM83.0898 161.905C82.6674 161.905 82.3192 161.56 82.3192 161.126H81.3192C81.3192 162.105 82.1087 162.905 83.0898 162.905V161.905ZM82.3192 161.126C82.3192 160.692 82.6674 160.347 83.0898 160.347V159.347C82.1087 159.347 81.3192 160.147 81.3192 161.126H82.3192ZM83.0898 160.347C83.5122 160.347 83.8604 160.692 83.8604 161.126H84.8604C84.8604 160.147 84.0709 159.347 83.0898 159.347V160.347ZM103.288 171.105C102.865 171.105 102.517 170.759 102.517 170.326H101.517C101.517 171.305 102.307 172.105 103.288 172.105V171.105ZM102.517 170.326C102.517 169.892 102.865 169.546 103.288 169.546V168.546C102.307 168.546 101.517 169.346 101.517 170.326H102.517ZM103.288 169.546C103.71 169.546 104.058 169.892 104.058 170.326H105.058C105.058 169.346 104.269 168.546 103.288 168.546V169.546ZM103.288 186.043C102.865 186.043 102.517 185.697 102.517 185.263H101.517C101.517 186.243 102.307 187.043 103.288 187.043V186.043ZM102.517 185.263C102.517 184.83 102.865 184.484 103.288 184.484V183.484C102.307 183.484 101.517 184.284 101.517 185.263H102.517ZM103.288 184.484C103.71 184.484 104.058 184.83 104.058 185.263H105.058C105.058 184.284 104.269 183.484 103.288 183.484V184.484ZM131.644 197.171C131.644 198.493 130.581 199.559 129.277 199.559V200.559C131.14 200.559 132.644 199.039 132.644 197.171H131.644ZM126.91 197.171C126.91 195.85 127.973 194.784 129.277 194.784V193.784C127.414 193.784 125.91 195.304 125.91 197.171H126.91ZM129.277 194.784C130.581 194.784 131.644 195.85 131.644 197.171H132.644C132.644 195.304 131.14 193.784 129.277 193.784V194.784ZM131.034 227.247C131.034 228.116 130.335 228.815 129.481 228.815V229.815C130.894 229.815 132.034 228.662 132.034 227.247H131.034ZM129.481 225.68C130.335 225.68 131.034 226.378 131.034 227.247H132.034C132.034 225.833 130.894 224.68 129.481 224.68V225.68ZM104.613 228.815C103.758 228.815 103.059 228.116 103.059 227.247H102.059C102.059 228.662 103.199 229.815 104.613 229.815V228.815ZM103.059 227.247C103.059 226.378 103.758 225.68 104.613 225.68V224.68C103.199 224.68 102.059 225.833 102.059 227.247H103.059ZM104.613 225.68C105.467 225.68 106.166 226.378 106.166 227.247H107.166C107.166 225.833 106.026 224.68 104.613 224.68V225.68ZM104.613 266.986C103.344 266.986 102.309 265.949 102.309 264.663H101.309C101.309 266.495 102.785 267.986 104.613 267.986V266.986ZM102.309 264.663C102.309 263.377 103.344 262.34 104.613 262.34V261.34C102.785 261.34 101.309 262.831 101.309 264.663H102.309ZM104.613 262.34C105.882 262.34 106.916 263.377 106.916 264.663H107.916C107.916 262.831 106.44 261.34 104.613 261.34V262.34ZM93.4969 205.372C93.4969 204.138 94.4895 203.144 95.7067 203.144V202.144C93.9308 202.144 92.4969 203.593 92.4969 205.372H93.4969ZM95.7067 203.144C96.924 203.144 97.9166 204.138 97.9166 205.372H98.9166C98.9166 203.593 97.4827 202.144 95.7067 202.144V203.144ZM97.9166 247.867C97.9166 249.101 96.924 250.096 95.7067 250.096V251.096C97.4827 251.096 98.9166 249.647 98.9166 247.867H97.9166ZM95.7067 250.096C94.4895 250.096 93.4969 249.101 93.4969 247.867H92.4969C92.4969 249.647 93.9308 251.096 95.7067 251.096V250.096ZM93.4969 247.867C93.4969 246.633 94.4895 245.639 95.7067 245.639V244.639C93.9308 244.639 92.4969 246.088 92.4969 247.867H93.4969ZM127.18 185.263C127.18 185.697 126.832 186.043 126.41 186.043V187.043C127.391 187.043 128.18 186.243 128.18 185.263H127.18ZM125.639 185.263C125.639 184.83 125.987 184.484 126.41 184.484V183.484C125.428 183.484 124.639 184.284 124.639 185.263H125.639ZM126.41 184.484C126.832 184.484 127.18 184.83 127.18 185.263H128.18C128.18 184.284 127.391 183.484 126.41 183.484V184.484ZM135.393 175.036C135.393 175.469 135.045 175.815 134.623 175.815V176.815C135.604 176.815 136.393 176.015 136.393 175.036H135.393ZM134.623 175.815C134.2 175.815 133.852 175.469 133.852 175.036H132.852C132.852 176.015 133.642 176.815 134.623 176.815V175.815ZM133.852 175.036C133.852 174.602 134.2 174.256 134.623 174.256V173.256C133.642 173.256 132.852 174.056 132.852 175.036H133.852ZM134.623 174.256C135.045 174.256 135.393 174.602 135.393 175.036H136.393C136.393 174.056 135.604 173.256 134.623 173.256V174.256ZM125.91 147.486C125.91 148.07 125.44 148.538 124.868 148.538V149.538C125.999 149.538 126.91 148.616 126.91 147.486H125.91ZM123.826 147.486C123.826 146.901 124.296 146.433 124.868 146.433V145.433C123.737 145.433 122.826 146.355 122.826 147.486H123.826ZM124.868 146.433C125.44 146.433 125.91 146.901 125.91 147.486H126.91C126.91 146.355 125.999 145.433 124.868 145.433V146.433ZM124.868 167.651C124.296 167.651 123.826 167.184 123.826 166.599H122.826C122.826 167.729 123.737 168.651 124.868 168.651V167.651ZM124.868 165.547C125.44 165.547 125.91 166.015 125.91 166.599H126.91C126.91 165.469 125.999 164.547 124.868 164.547V165.547ZM84.173 143.579C84.173 144.301 83.592 144.881 82.8826 144.881V145.881C84.1508 145.881 85.173 144.847 85.173 143.579H84.173ZM81.5923 143.579C81.5923 142.856 82.1732 142.276 82.8826 142.276V141.276C81.6145 141.276 80.5923 142.31 80.5923 143.579H81.5923ZM82.8826 142.276C83.592 142.276 84.173 142.856 84.173 143.579H85.173C85.173 142.31 84.1508 141.276 82.8826 141.276V142.276ZM76.9583 178.681C76.9583 179.607 76.2141 180.351 75.3033 180.351V181.351C76.7728 181.351 77.9583 180.153 77.9583 178.681H76.9583ZM75.3033 177.012C76.2141 177.012 76.9583 177.756 76.9583 178.681H77.9583C77.9583 177.21 76.7728 176.012 75.3033 176.012V177.012ZM45.3426 180.351C44.4318 180.351 43.6876 179.607 43.6876 178.681H42.6876C42.6876 180.153 43.873 181.351 45.3426 181.351V180.351ZM43.6876 178.681C43.6876 177.756 44.4318 177.012 45.3426 177.012V176.012C43.873 176.012 42.6876 177.21 42.6876 178.681H43.6876ZM45.3426 177.012C46.2534 177.012 46.9976 177.756 46.9976 178.681H47.9976C47.9976 177.21 46.8121 176.012 45.3426 176.012V177.012ZM28.0112 207.591C26.8301 207.591 25.8667 206.626 25.8667 205.428H24.8667C24.8667 207.172 26.2713 208.591 28.0112 208.591V207.591ZM25.8667 205.428C25.8667 204.231 26.8301 203.266 28.0112 203.266V202.266C26.2713 202.266 24.8667 203.685 24.8667 205.428H25.8667ZM28.0112 203.266C29.1924 203.266 30.1558 204.231 30.1558 205.428H31.1558C31.1558 203.685 29.7512 202.266 28.0112 202.266V203.266ZM47.0977 227.655C47.0977 228.609 46.3311 229.376 45.3926 229.376V230.376C46.8898 230.376 48.0977 229.154 48.0977 227.655H47.0977ZM45.3926 229.376C44.4542 229.376 43.6876 228.609 43.6876 227.655H42.6876C42.6876 229.154 43.8954 230.376 45.3926 230.376V229.376ZM29.2545 234.306C29.2545 235.002 28.6946 235.561 28.0112 235.561V236.561C29.2534 236.561 30.2545 235.548 30.2545 234.306H29.2545ZM26.7679 234.306C26.7679 233.609 27.3278 233.05 28.0112 233.05V232.05C26.7691 232.05 25.7679 233.063 25.7679 234.306H26.7679ZM3.81442 236.171C2.79645 236.171 1.96539 235.339 1.96539 234.306H0.965393C0.965393 235.885 2.23773 237.171 3.81442 237.171V236.171ZM1.96539 234.306C1.96539 233.272 2.79645 232.44 3.81442 232.44V231.44C2.23773 231.44 0.965393 232.726 0.965393 234.306H1.96539ZM3.81442 232.44C4.83239 232.44 5.66345 233.272 5.66345 234.306H6.66345C6.66345 232.726 5.39112 231.44 3.81442 231.44V232.44ZM74.0196 227.655C74.0196 228.225 73.5619 228.681 73.0046 228.681V229.681C74.1207 229.681 75.0196 228.771 75.0196 227.655H74.0196ZM73.0046 228.681C72.4473 228.681 71.9897 228.225 71.9897 227.655H70.9897C70.9897 228.771 71.8886 229.681 73.0046 229.681V228.681ZM73.0046 226.63C73.5619 226.63 74.0196 227.086 74.0196 227.655H75.0196C75.0196 226.54 74.1207 225.63 73.0046 225.63V226.63ZM67.2437 250.596C67.2437 251.165 66.7861 251.621 66.2288 251.621V252.621C67.3448 252.621 68.2437 251.711 68.2437 250.596H67.2437ZM65.2139 250.596C65.2139 250.026 65.6715 249.571 66.2288 249.571V248.571C65.1128 248.571 64.2139 249.481 64.2139 250.596H65.2139ZM66.2288 249.571C66.7861 249.571 67.2437 250.026 67.2437 250.596H68.2437C68.2437 249.481 67.3448 248.571 66.2288 248.571V249.571ZM67.2437 269.966C67.2437 270.536 66.7861 270.991 66.2288 270.991V271.991C67.3448 271.991 68.2437 271.081 68.2437 269.966H67.2437ZM66.2288 270.991C65.6715 270.991 65.2139 270.536 65.2139 269.966H64.2139C64.2139 271.081 65.1128 271.991 66.2288 271.991V270.991ZM65.2139 269.966C65.2139 269.397 65.6715 268.941 66.2288 268.941V267.941C65.1128 267.941 64.2139 268.851 64.2139 269.966H65.2139ZM97.7222 269.966C97.7222 270.536 97.2646 270.991 96.7073 270.991V271.991C97.8233 271.991 98.7222 271.081 98.7222 269.966H97.7222ZM96.7073 270.991C96.1499 270.991 95.6923 270.536 95.6923 269.966H94.6923C94.6923 271.081 95.5912 271.991 96.7073 271.991V270.991ZM96.7073 268.941C97.2646 268.941 97.7222 269.397 97.7222 269.966H98.7222C98.7222 268.851 97.8233 267.941 96.7073 267.941V268.941ZM108.883 256.534C108.883 257.103 108.425 257.559 107.868 257.559V258.559C108.984 258.559 109.883 257.649 109.883 256.534H108.883ZM107.868 257.559C107.31 257.559 106.853 257.103 106.853 256.534H105.853C105.853 257.649 106.752 258.559 107.868 258.559V257.559ZM106.853 256.534C106.853 255.964 107.31 255.509 107.868 255.509V254.509C106.752 254.509 105.853 255.419 105.853 256.534H106.853ZM107.868 255.509C108.425 255.509 108.883 255.964 108.883 256.534H109.883C109.883 255.419 108.984 254.509 107.868 254.509V255.509ZM105.892 293.598C105.892 294.314 105.316 294.889 104.613 294.889V295.889C105.875 295.889 106.892 294.86 106.892 293.598H105.892ZM103.334 293.598C103.334 292.881 103.91 292.306 104.613 292.306V291.306C103.351 291.306 102.334 292.335 102.334 293.598H103.334ZM35.0214 251.621C34.4641 251.621 34.0065 251.165 34.0065 250.596H33.0065C33.0065 251.711 33.9054 252.621 35.0214 252.621V251.621ZM34.0065 250.596C34.0065 250.026 34.4641 249.571 35.0214 249.571V248.571C33.9054 248.571 33.0065 249.481 33.0065 250.596H34.0065ZM35.0214 249.571C35.5787 249.571 36.0363 250.026 36.0363 250.596H37.0363C37.0363 249.481 36.1374 248.571 35.0214 248.571V249.571ZM75.1114 130.396C74.3142 130.396 73.6622 129.744 73.6622 128.933H72.6622C72.6622 130.29 73.7555 131.396 75.1114 131.396V130.396ZM73.6622 128.933C73.6622 128.122 74.3142 127.471 75.1114 127.471V126.471C73.7555 126.471 72.6622 127.576 72.6622 128.933H73.6622ZM75.1114 127.471C75.9085 127.471 76.5605 128.122 76.5605 128.933H77.5605C77.5605 127.576 76.4672 126.471 75.1114 126.471V127.471ZM76.5605 77.8207C76.5605 78.6317 75.9085 79.2832 75.1114 79.2832V80.2832C76.4672 80.2832 77.5605 79.1775 77.5605 77.8207H76.5605ZM75.1114 79.2832C74.3142 79.2832 73.6622 78.6317 73.6622 77.8207H72.6622C72.6622 79.1775 73.7555 80.2832 75.1114 80.2832V79.2832ZM73.6622 77.8207C73.6622 77.0098 74.3142 76.3582 75.1114 76.3582V75.3582C73.7555 75.3582 72.6622 76.4639 72.6622 77.8207H73.6622ZM58.5273 145.433C57.5149 145.433 56.6884 144.606 56.6884 143.579H55.6884C55.6884 145.152 56.9562 146.433 58.5273 146.433V145.433ZM56.6884 143.579C56.6884 142.551 57.5149 141.724 58.5273 141.724V140.724C56.9562 140.724 55.6884 142.005 55.6884 143.579H56.6884ZM58.5273 141.724C59.5396 141.724 60.3661 142.551 60.3661 143.579H61.3661C61.3661 142.005 60.0984 140.724 58.5273 140.724V141.724ZM82.8826 116.87C81.6397 116.87 80.6263 115.855 80.6263 114.595H79.6263C79.6263 116.401 81.081 117.87 82.8826 117.87V116.87ZM80.6263 114.595C80.6263 113.335 81.6397 112.32 82.8826 112.32V111.32C81.081 111.32 79.6263 112.79 79.6263 114.595H80.6263ZM128.854 28.0845C128.854 30.746 126.712 32.8978 124.077 32.8978V33.8978C127.271 33.8978 129.854 31.2918 129.854 28.0845H128.854ZM124.077 32.8978C121.442 32.8978 119.3 30.746 119.3 28.0845H118.3C118.3 31.2918 120.883 33.8978 124.077 33.8978V32.8978ZM119.3 28.0845C119.3 25.4229 121.442 23.2712 124.077 23.2712V22.2712C120.883 22.2712 118.3 24.8771 118.3 28.0845H119.3ZM124.077 23.2712C126.712 23.2712 128.854 25.4229 128.854 28.0845H129.854C129.854 24.8771 127.271 22.2712 124.077 22.2712V23.2712ZM112.531 10.1361H122.754V9.13612H112.531V10.1361ZM122.254 9.63612V19.9289H123.254V9.63612H122.254ZM122.754 19.4289H112.531V20.4289H122.754V19.4289ZM113.031 19.9289V9.63612H112.031V19.9289H113.031ZM114.407 78.1532C114.407 80.8091 112.27 82.9563 109.64 82.9563V83.9563C112.828 83.9563 115.407 81.355 115.407 78.1532H114.407ZM109.64 82.9563C107.011 82.9563 104.873 80.8091 104.873 78.1532H103.873C103.873 81.355 106.452 83.9563 109.64 83.9563V82.9563ZM104.873 78.1532C104.873 75.4973 107.011 73.3502 109.64 73.3502V72.3502C106.452 72.3502 103.873 74.9515 103.873 78.1532H104.873ZM109.64 73.3502C112.27 73.3502 114.407 75.4973 114.407 78.1532H115.407C115.407 74.9515 112.828 72.3502 109.64 72.3502V73.3502ZM110.056 114.531C110.056 117.187 107.918 119.334 105.289 119.334V120.334C108.477 120.334 111.056 117.733 111.056 114.531H110.056ZM105.289 119.334C102.659 119.334 100.522 117.187 100.522 114.531H99.5219C99.5219 117.733 102.101 120.334 105.289 120.334V119.334ZM100.522 114.531C100.522 111.875 102.659 109.728 105.289 109.728V108.728C102.101 108.728 99.5219 111.329 99.5219 114.531H100.522ZM105.289 109.728C107.918 109.728 110.056 111.875 110.056 114.531H111.056C111.056 111.329 108.477 108.728 105.289 108.728V109.728ZM129.635 166.599C129.635 169.255 127.497 171.402 124.868 171.402V172.402C128.056 172.402 130.635 169.801 130.635 166.599H129.635ZM124.868 171.402C122.239 171.402 120.101 169.255 120.101 166.599H119.101C119.101 169.801 121.68 172.402 124.868 172.402V171.402ZM120.101 166.599C120.101 163.943 122.239 161.796 124.868 161.796V160.796C121.68 160.796 119.101 163.398 119.101 166.599H120.101ZM124.868 161.796C127.497 161.796 129.635 163.943 129.635 166.599H130.635C130.635 163.398 128.056 160.796 124.868 160.796V161.796ZM108.055 185.263C108.055 187.919 105.917 190.067 103.288 190.067V191.067C106.476 191.067 109.055 188.465 109.055 185.263H108.055ZM103.288 190.067C100.658 190.067 98.5209 187.919 98.5209 185.263H97.5209C97.5209 188.465 100.1 191.067 103.288 191.067V190.067ZM98.5209 185.263C98.5209 182.608 100.658 180.46 103.288 180.46V179.46C100.1 179.46 97.5209 182.062 97.5209 185.263H98.5209ZM103.288 180.46C105.917 180.46 108.055 182.608 108.055 185.263H109.055C109.055 182.062 106.476 179.46 103.288 179.46V180.46ZM100.474 205.372C100.474 208.028 98.3362 210.175 95.7067 210.175V211.175C98.8949 211.175 101.474 208.574 101.474 205.372H100.474ZM95.7067 210.175C93.0773 210.175 90.9398 208.028 90.9398 205.372H89.9398C89.9398 208.574 92.5185 211.175 95.7067 211.175V210.175ZM90.9398 205.372C90.9398 202.717 93.0773 200.569 95.7067 200.569V199.569C92.5185 199.569 89.9398 202.171 89.9398 205.372H90.9398ZM95.7067 200.569C98.3362 200.569 100.474 202.717 100.474 205.372H101.474C101.474 202.171 98.8949 199.569 95.7067 199.569V200.569ZM134.248 227.247C134.248 229.903 132.11 232.05 129.481 232.05V233.05C132.669 233.05 135.248 230.449 135.248 227.247H134.248ZM129.481 232.05C126.851 232.05 124.714 229.903 124.714 227.247H123.714C123.714 230.449 126.292 233.05 129.481 233.05V232.05ZM124.714 227.247C124.714 224.591 126.851 222.444 129.481 222.444V221.444C126.292 221.444 123.714 224.046 123.714 227.247H124.714ZM129.481 222.444C132.11 222.444 134.248 224.591 134.248 227.247H135.248C135.248 224.046 132.669 221.444 129.481 221.444V222.444ZM32.7781 205.428C32.7781 208.084 30.6407 210.231 28.0112 210.231V211.231C31.1994 211.231 33.7781 208.63 33.7781 205.428H32.7781ZM28.0112 210.231C25.3818 210.231 23.2443 208.084 23.2443 205.428H22.2443C22.2443 208.63 24.823 211.231 28.0112 211.231V210.231ZM23.2443 205.428C23.2443 202.772 25.3818 200.625 28.0112 200.625V199.625C24.823 199.625 22.2443 202.227 22.2443 205.428H23.2443ZM28.0112 200.625C30.6407 200.625 32.7781 202.772 32.7781 205.428H33.7781C33.7781 202.227 31.1994 199.625 28.0112 199.625V200.625ZM50.1095 227.247C50.1095 229.903 47.9721 232.05 45.3426 232.05V233.05C48.5308 233.05 51.1095 230.449 51.1095 227.247H50.1095ZM45.3426 232.05C42.7131 232.05 40.5757 229.903 40.5757 227.247H39.5757C39.5757 230.449 42.1544 233.05 45.3426 233.05V232.05ZM40.5757 227.247C40.5757 224.591 42.7131 222.444 45.3426 222.444V221.444C42.1544 221.444 39.5757 224.046 39.5757 227.247H40.5757ZM45.3426 222.444C47.9721 222.444 50.1095 224.591 50.1095 227.247H51.1095C51.1095 224.046 48.5308 221.444 45.3426 221.444V222.444ZM39.7883 250.596C39.7883 253.252 37.6509 255.399 35.0214 255.399V256.399C38.2096 256.399 40.7883 253.798 40.7883 250.596H39.7883ZM35.0214 255.399C32.3919 255.399 30.2545 253.252 30.2545 250.596H29.2545C29.2545 253.798 31.8332 256.399 35.0214 256.399V255.399ZM30.2545 250.596C30.2545 247.94 32.3919 245.793 35.0214 245.793V244.793C31.8332 244.793 29.2545 247.394 29.2545 250.596H30.2545ZM35.0214 245.793C37.6509 245.793 39.7883 247.94 39.7883 250.596H40.7883C40.7883 247.394 38.2096 244.793 35.0214 244.793V245.793ZM70.9957 269.966C70.9957 272.622 68.8583 274.769 66.2288 274.769V275.769C69.417 275.769 71.9957 273.168 71.9957 269.966H70.9957ZM66.2288 274.769C63.5994 274.769 61.4619 272.622 61.4619 269.966H60.4619C60.4619 273.168 63.0406 275.769 66.2288 275.769V274.769ZM61.4619 269.966C61.4619 267.31 63.5994 265.163 66.2288 265.163V264.163C63.0406 264.163 60.4619 266.764 60.4619 269.966H61.4619ZM66.2288 265.163C68.8583 265.163 70.9957 267.31 70.9957 269.966H71.9957C71.9957 266.764 69.417 264.163 66.2288 264.163V265.163ZM109.38 293.598C109.38 296.253 107.242 298.401 104.613 298.401V299.401C107.801 299.401 110.38 296.799 110.38 293.598H109.38ZM104.613 298.401C101.983 298.401 99.8458 296.253 99.8458 293.598H98.8458C98.8458 296.799 101.425 299.401 104.613 299.401V298.401ZM99.8458 293.598C99.8458 290.942 101.983 288.795 104.613 288.795V287.795C101.425 287.795 98.8458 290.396 98.8458 293.598H99.8458ZM104.613 288.795C107.242 288.795 109.38 290.942 109.38 293.598H110.38C110.38 290.396 107.801 287.795 104.613 287.795V288.795ZM80.1351 295.326C79.1919 295.326 78.4214 294.556 78.4214 293.598H77.4214C77.4214 295.101 78.6332 296.326 80.1351 296.326V295.326ZM78.4214 293.598C78.4214 292.64 79.1919 291.869 80.1351 291.869V290.869C78.6332 290.869 77.4214 292.094 77.4214 293.598H78.4214ZM80.1351 291.869C81.0782 291.869 81.8487 292.64 81.8487 293.598H82.8487C82.8487 292.094 81.637 290.869 80.1351 290.869V291.869ZM84.902 293.598C84.902 296.253 82.7645 298.401 80.1351 298.401V299.401C83.3233 299.401 85.902 296.799 85.902 293.598H84.902ZM80.1351 298.401C77.5056 298.401 75.3682 296.253 75.3682 293.598H74.3682C74.3682 296.799 76.9469 299.401 80.1351 299.401V298.401ZM75.3682 293.598C75.3682 290.942 77.5056 288.795 80.1351 288.795V287.795C76.9469 287.795 74.3682 290.396 74.3682 293.598H75.3682ZM80.1351 288.795C82.7645 288.795 84.902 290.942 84.902 293.598H85.902C85.902 290.396 83.3233 287.795 80.1351 287.795V288.795ZM111.414 256.53C111.414 258.507 109.823 260.104 107.868 260.104V261.104C110.382 261.104 112.414 259.053 112.414 256.53H111.414ZM107.868 260.104C105.912 260.104 104.321 258.507 104.321 256.53H103.321C103.321 259.053 105.354 261.104 107.868 261.104V260.104ZM104.321 256.53C104.321 254.553 105.912 252.956 107.868 252.956V251.956C105.354 251.956 103.321 254.007 103.321 256.53H104.321ZM107.868 252.956C109.823 252.956 111.414 254.553 111.414 256.53H112.414C112.414 254.007 110.382 251.956 107.868 251.956V252.956ZM77.7715 227.247C77.7715 229.903 75.6341 232.05 73.0046 232.05V233.05C76.1928 233.05 78.7715 230.449 78.7715 227.247H77.7715ZM73.0046 232.05C70.3751 232.05 68.2377 229.903 68.2377 227.247H67.2377C67.2377 230.449 69.8164 233.05 73.0046 233.05V232.05ZM68.2377 227.247C68.2377 224.591 70.3751 222.444 73.0046 222.444V221.444C69.8164 221.444 67.2377 224.046 67.2377 227.247H68.2377ZM73.0046 222.444C75.6341 222.444 77.7715 224.591 77.7715 227.247H78.7715C78.7715 224.046 76.1928 221.444 73.0046 221.444V222.444ZM155.5 157.717C155.5 160.372 153.363 162.52 150.733 162.52V163.52C153.921 163.52 156.5 160.918 156.5 157.717H155.5ZM150.733 162.52C148.104 162.52 145.966 160.372 145.966 157.717H144.966C144.966 160.918 147.545 163.52 150.733 163.52V162.52ZM145.966 157.717C145.966 155.061 148.104 152.913 150.733 152.913V151.913C147.545 151.913 144.966 154.515 144.966 157.717H145.966ZM150.733 152.913C153.363 152.913 155.5 155.061 155.5 157.717H156.5C156.5 154.515 153.921 151.913 150.733 151.913V152.913ZM117.224 109.792H127.515V108.792H117.224V109.792ZM127.515 119.153H117.224V120.153H127.515V119.153ZM151.266 111.719V78.1479H150.266V111.719H151.266ZM83.5495 161.626H93.9977V160.626H83.5495V161.626ZM138.594 158.052L138.594 126.969L137.594 126.969L137.594 158.052L138.594 158.052ZM75.3032 170.826H102.017V169.826H75.3032V170.826ZM126.91 183.984L126.91 175.036L125.91 175.036L125.91 183.984L126.91 183.984ZM126.41 175.536H133.352V174.536H126.41V175.536ZM134.123 176.315L134.123 181.151L135.123 181.151L135.123 176.315L134.123 176.315ZM134.623 181.651H155.794V180.651H134.623V181.651ZM66.2288 200.681H76.6515V199.681H66.2288V200.681ZM76.6515 210.175H66.2288V211.175H76.6515V210.175ZM142.82 192.424H153.243V191.424H142.82V192.424ZM152.743 191.924V202.419H153.743V191.924H152.743ZM153.243 201.919H142.82V202.919H153.243V201.919ZM10.4075 230.376H20.8301V229.376H10.4075V230.376ZM20.8301 239.87H10.4075V240.87H20.8301V239.87ZM128.981 241.336H155.654V240.336H128.981V241.336ZM92.9872 247.368L74.0649 247.735L74.0843 248.734L93.0066 248.367L92.9872 247.368ZM98.4166 248.367H155.654V247.367H98.4166V248.367ZM65.7288 252.121V268.441H66.7288V252.121H65.7288ZM96.7072 257.034L106.353 257.034L106.353 256.034L96.7072 256.034L96.7072 257.034ZM126.645 260.987H136.423V259.987H126.645V260.987ZM136.423 269.832H126.645V270.832H136.423V269.832ZM65.7288 205.509V210.675H66.7288V205.509H65.7288ZM77.1515 210.675V205.496H76.1515V210.675H77.1515ZM66.7288 205.509V200.181H65.7288V205.509H66.7288ZM76.1515 200.181V205.496H77.1515V200.181H76.1515ZM21.3301 240.37V234.619H20.3301V240.37H21.3301ZM9.90747 234.619V240.37H10.9075V234.619H9.90747ZM10.9075 234.619V229.876H9.90747V234.619H10.9075ZM20.3301 229.876V234.619H21.3301V229.876H20.3301ZM126.145 260.487V264.906H127.145V260.487H126.145ZM136.923 264.906V260.487H135.923V264.906H136.923ZM135.923 264.906V270.332H136.923V264.906H135.923ZM136.423 265.406H155.654V264.406H136.423V265.406ZM127.145 270.332V264.906H126.145V270.332H127.145ZM142.32 191.924V197.171H143.32V191.924H142.32ZM142.32 197.171V202.419H143.32V197.171H142.32ZM67.4411 143.797V148.821H68.4411V143.797H67.4411ZM67.9411 149.321H75.2599V148.321H67.9411V149.321ZM78.3554 148.321H75.2599V149.321H78.3554V148.321ZM68.4411 143.797V138.336H67.4411V143.797H68.4411ZM75.2599 137.836H67.9411V138.836H75.2599V137.836ZM75.2599 138.836H78.3554V137.836H75.2599V138.836ZM78.8554 143.797V138.336H77.8554V143.797H78.8554ZM77.8554 143.797V148.821H78.8554V143.797H77.8554ZM116.724 109.292V114.53H117.724V109.292H116.724ZM116.724 114.53V119.653H117.724V114.53H116.724ZM128.015 119.653V114.649H127.015V119.653H128.015ZM128.015 114.649V109.292H127.015V114.649H128.015ZM96.4445 78.2211C96.4601 78.1078 96.4681 77.9922 96.4681 77.875H95.4681C95.4681 77.9466 95.4632 78.0168 95.4538 78.0854L96.4445 78.2211ZM93.9651 75.3582C92.6239 75.3582 91.5341 76.4168 91.4655 77.7424L92.4641 77.7941C92.5057 76.9913 93.1648 76.3582 93.9651 76.3582V75.3582ZM91.4655 77.7424C91.4632 77.7864 91.462 77.8306 91.462 77.875H92.462C92.462 77.8478 92.4627 77.8208 92.4641 77.7942L91.4655 77.7424ZM91.462 77.875C91.462 79.2423 92.5482 80.3598 93.907 80.3911L93.9299 79.3913C93.1193 79.3727 92.462 78.704 92.462 77.875H91.462ZM93.9071 80.3911C93.9262 80.3915 93.9455 80.3918 93.9651 80.3918V79.3918C93.9534 79.3918 93.9417 79.3916 93.9299 79.3913L93.9071 80.3911ZM93.9651 80.3918C95.2334 80.3918 96.2768 79.4449 96.4445 78.2211L95.4538 78.0853C95.3523 78.8259 94.7216 79.3918 93.9651 79.3918V80.3918ZM77.5605 77.8207C77.5605 77.7988 77.5602 77.777 77.5596 77.7554L76.56 77.7812C76.5603 77.7944 76.5605 77.8075 76.5605 77.8207H77.5605ZM77.5596 77.7553C77.5251 76.4285 76.4453 75.3582 75.1114 75.3582V76.3582C75.8955 76.3582 76.5393 76.9888 76.56 77.7813L77.5596 77.7553ZM91.9648 77.2683H77.0598V78.2683H91.9648V77.2683ZM126.558 78.2144C126.573 78.1032 126.58 77.9899 126.58 77.875H125.58C125.58 77.9452 125.576 78.0141 125.567 78.0813L126.558 78.2144ZM124.077 75.3582C124.012 75.3582 123.947 75.3607 123.883 75.3657L123.96 76.3627C123.999 76.3597 124.038 76.3582 124.077 76.3582V75.3582ZM123.883 75.3657C122.588 75.4662 121.574 76.5537 121.574 77.875H122.574C122.574 77.0743 123.188 76.4227 123.96 76.3627L123.883 75.3657ZM121.574 77.875C121.574 77.9922 121.582 78.1078 121.598 78.2211L122.589 78.0854C122.579 78.0168 122.574 77.9466 122.574 77.875H121.574ZM121.598 78.2211C121.766 79.4449 122.809 80.3918 124.077 80.3918V79.3918C123.321 79.3918 122.69 78.8259 122.589 78.0853L121.598 78.2211ZM124.077 80.3918C125.348 80.3918 126.393 79.4414 126.558 78.2144L125.567 78.0813C125.467 78.8238 124.835 79.3918 124.077 79.3918V80.3918ZM95.9492 78.6532H122.093V77.6532H95.9492V78.6532ZM126.062 78.6479H150.766V77.6479H126.062V78.6479ZM127.402 67.2196C127.402 67.1828 127.402 67.1461 127.401 67.1095L126.401 67.1418C126.402 67.1676 126.402 67.1935 126.402 67.2196H127.402ZM127.401 67.1095C127.343 65.3163 125.88 63.8751 124.077 63.8751V64.8751C125.332 64.8751 126.36 65.88 126.401 67.1417L127.401 67.1095ZM124.077 63.8751C124.032 63.8751 123.987 63.876 123.942 63.8778L123.982 64.877C124.014 64.8757 124.046 64.8751 124.077 64.8751V63.8751ZM123.942 63.8778C122.165 63.9494 120.752 65.421 120.752 67.2196H121.752C121.752 65.9537 122.746 64.9268 123.983 64.877L123.942 63.8778ZM120.752 67.2196C120.752 69.0018 122.14 70.4629 123.894 70.559L123.949 69.5605C122.728 69.4936 121.752 68.4738 121.752 67.2196H120.752ZM123.894 70.559C123.955 70.5624 124.016 70.564 124.077 70.564V69.564C124.034 69.564 123.991 69.5629 123.949 69.5605L123.894 70.559ZM123.421 70.0598V75.8642H124.421V70.0598H123.421ZM126.901 67.6256H155.789V66.6256H126.901V67.6256ZM121.367 28.0845C121.367 29.5391 122.502 30.7321 123.937 30.8061L123.988 29.8074C123.088 29.761 122.367 29.0101 122.367 28.0845H121.367ZM123.937 30.8061C123.983 30.8085 124.03 30.8097 124.077 30.8097V29.8097C124.047 29.8097 124.018 29.8089 123.988 29.8074L123.937 30.8061ZM124.462 64.3774V30.3067H123.462V64.3774H124.462ZM126.644 5.31329V5.31699H127.644V5.31329H126.644ZM126.644 5.3178C126.647 6.81761 127.856 8.0385 129.354 8.0385V7.0385C128.414 7.0385 127.646 6.27087 127.644 5.31618L126.644 5.3178ZM106.977 5.31699V5.31329H105.977V5.31699H106.977ZM104.267 8.0385C105.765 8.0385 106.974 6.81761 106.977 5.3178L105.977 5.31618C105.975 6.27087 105.207 7.0385 104.267 7.0385V8.0385ZM106.477 5.81699H127.144V4.81699H106.477V5.81699ZM83.0719 117.865C84.7854 117.766 86.1389 116.337 86.1389 114.595H85.1389C85.1389 115.81 84.1959 116.798 83.0142 116.867L83.0719 117.865ZM86.1389 114.595C86.1389 114.57 86.1387 114.545 86.1381 114.52L85.1384 114.543C85.1388 114.56 85.1389 114.578 85.1389 114.595H86.1389ZM86.1381 114.52C86.0985 112.749 84.6593 111.32 82.8826 111.32V112.32C84.1083 112.32 85.1107 113.307 85.1384 114.543L86.1381 114.52ZM82.8826 117.87C82.9461 117.87 83.0092 117.869 83.0719 117.865L83.0142 116.867C82.9707 116.869 82.9268 116.87 82.8826 116.87V117.87ZM82.543 117.366V141.776H83.543V117.366H82.543ZM85.6383 115.032L117.224 115.03L117.224 114.03L85.6382 114.032L85.6383 115.032ZM75.2977 131.389C76.5664 131.292 77.5605 130.227 77.5605 128.933H76.5605C76.5605 129.706 75.9675 130.335 75.2221 130.391L75.2977 131.389ZM75.1114 131.396C75.1739 131.396 75.2361 131.393 75.2977 131.389L75.2221 130.391C75.1856 130.394 75.1487 130.396 75.1114 130.396V131.396ZM75.7599 138.336V130.89H74.7599V138.336H75.7599ZM61.3541 143.843C61.3621 143.755 61.3661 143.667 61.3661 143.579H60.3661C60.3661 143.637 60.3635 143.695 60.3583 143.752L61.3541 143.843ZM58.5273 146.433C60.0095 146.433 61.2216 145.293 61.3541 143.843L60.3583 143.752C60.2719 144.697 59.4822 145.433 58.5273 145.433V146.433ZM67.9411 143.297H60.8562V144.297H67.9411V143.297ZM80.5923 143.579C80.5923 143.672 80.5979 143.765 80.6089 143.857L81.6017 143.737C81.5955 143.686 81.5923 143.633 81.5923 143.579H80.5923ZM80.6089 143.857C80.7454 144.995 81.7085 145.881 82.8826 145.881V144.881C82.2261 144.881 81.6794 144.384 81.6017 143.737L80.6089 143.857ZM81.1053 143.297H78.3554V144.297H81.1053V143.297ZM96.4681 126.971C96.4681 126.906 96.4657 126.842 96.4609 126.779L95.4637 126.854C95.4666 126.892 95.4681 126.931 95.4681 126.971H96.4681ZM96.4609 126.779C96.3635 125.481 95.2862 124.454 93.9651 124.454V125.454C94.7533 125.454 95.4047 126.068 95.4637 126.854L96.4609 126.779ZM93.9651 124.454C93.9455 124.454 93.9262 124.454 93.9071 124.454L93.9299 125.454C93.9417 125.454 93.9534 125.454 93.9651 125.454V124.454ZM93.907 124.454C92.5482 124.486 91.462 125.603 91.462 126.971H92.462C92.462 126.142 93.1193 125.473 93.9299 125.454L93.907 124.454ZM94.4185 124.954V79.8912H93.4185V124.954H94.4185ZM116.904 126.971C116.904 126.902 116.901 126.835 116.894 126.768L115.899 126.865C115.903 126.9 115.904 126.935 115.904 126.971H116.904ZM112.831 126.768C112.825 126.835 112.821 126.902 112.821 126.971H113.821C113.821 126.935 113.823 126.9 113.826 126.865L112.831 126.768ZM112.821 126.971C112.821 128.075 113.691 128.98 114.786 129.021L114.823 128.022C114.269 128.001 113.821 127.541 113.821 126.971H112.821ZM114.786 129.021C114.811 129.022 114.837 129.023 114.863 129.023V128.023C114.849 128.023 114.836 128.022 114.823 128.022L114.786 129.021ZM113.826 126.865C113.879 126.331 114.326 125.918 114.863 125.918V124.918C113.8 124.918 112.932 125.732 112.831 126.768L113.826 126.865ZM95.9623 127.316H113.329V126.316H95.9623V127.316ZM116.397 127.316H138.094V126.316H116.397V127.316ZM114.863 125.918C115.4 125.918 115.847 126.331 115.899 126.865L116.894 126.768C116.793 125.732 115.925 124.918 114.863 124.918V125.918ZM114.863 142.138C114.837 142.138 114.811 142.138 114.786 142.139L114.823 143.139C114.836 143.138 114.849 143.138 114.863 143.138V142.138ZM114.786 142.139C113.691 142.181 112.821 143.086 112.821 144.19H113.821C113.821 143.619 114.269 143.16 114.823 143.139L114.786 142.139ZM114.304 128.522V142.639H115.304V128.522H114.304ZM122.826 147.486C122.826 147.573 122.832 147.659 122.843 147.744L123.835 147.62C123.829 147.576 123.826 147.531 123.826 147.486H122.826ZM122.843 147.744C122.961 148.687 123.714 149.433 124.664 149.528L124.764 148.533C124.284 148.485 123.896 148.105 123.835 147.62L122.843 147.744ZM124.664 149.528C124.731 149.534 124.799 149.538 124.868 149.538V148.538C124.833 148.538 124.798 148.536 124.763 148.533L124.664 149.528ZM95.9905 147.744C96.0012 147.659 96.0066 147.573 96.0066 147.486H95.0066C95.0066 147.531 95.0038 147.576 94.9983 147.62L95.9905 147.744ZM93.965 149.538C93.9792 149.538 93.9937 149.538 94.0083 149.537L93.9871 148.538C93.98 148.538 93.9727 148.538 93.965 148.538V149.538ZM94.0081 149.537C95.0319 149.516 95.8657 148.739 95.9905 147.744L94.9983 147.62C94.9339 148.133 94.5046 148.527 93.9872 148.538L94.0081 149.537ZM94.4977 161.126V149.037H93.4977V161.126H94.4977ZM95.4944 148.182H123.339V147.182H95.4944V148.182ZM126.862 167.042C126.893 166.899 126.91 166.751 126.91 166.599H125.91C125.91 166.678 125.901 166.755 125.885 166.828L126.862 167.042ZM124.868 164.547C124.799 164.547 124.731 164.55 124.664 164.557L124.763 165.552C124.798 165.549 124.833 165.547 124.868 165.547V164.547ZM124.664 164.557C123.629 164.661 122.826 165.538 122.826 166.599H123.826C123.826 166.051 124.24 165.605 124.764 165.552L124.664 164.557ZM124.868 168.651C125.847 168.651 126.661 167.96 126.862 167.042L125.885 166.828C125.781 167.301 125.363 167.651 124.868 167.651V168.651ZM124.214 149.03V165.055H125.214V149.03H124.214ZM126.373 167.435H155.426V166.435H126.373V167.435ZM150.766 154.463C150.603 154.463 150.442 154.475 150.285 154.499L150.434 155.488C150.542 155.471 150.653 155.463 150.766 155.463V154.463ZM150.285 154.499C148.724 154.733 147.531 156.086 147.531 157.717H148.531C148.531 156.583 149.36 155.649 150.434 155.488L150.285 154.499ZM147.531 157.717C147.531 157.85 147.539 157.982 147.555 158.112L148.548 157.992C148.537 157.902 148.531 157.81 148.531 157.717H147.531ZM147.555 158.112C147.749 159.72 149.11 160.97 150.766 160.97V159.97C149.627 159.97 148.683 159.109 148.548 157.992L147.555 158.112ZM148.051 157.552H138.094V158.552H148.051V157.552ZM147.531 114.473C147.531 114.501 147.532 114.529 147.532 114.557L148.532 114.532C148.531 114.512 148.531 114.493 148.531 114.473H147.531ZM147.532 114.557C147.572 116.138 148.733 117.44 150.25 117.685L150.409 116.698C149.366 116.529 148.56 115.63 148.532 114.532L147.532 114.557ZM150.25 117.685C150.418 117.712 150.591 117.726 150.766 117.726V116.726C150.644 116.726 150.525 116.717 150.409 116.698L150.25 117.685ZM149.83 117.192L149.859 154.994L150.859 154.993L150.83 117.191L149.83 117.192ZM127.517 115.149L148.035 115.045L148.03 114.045L127.512 114.149L127.517 115.149ZM75.3033 176.012C75.2856 176.012 75.2678 176.012 75.2498 176.012L75.27 177.012C75.2809 177.012 75.292 177.012 75.3033 177.012V176.012ZM75.25 176.012C73.805 176.041 72.6483 177.228 72.6483 178.681H73.6483C73.6483 177.767 74.3745 177.03 75.2698 177.012L75.25 176.012ZM72.6483 178.681C72.6483 178.806 72.6568 178.93 72.6735 179.05L73.6641 178.914C73.6537 178.838 73.6483 178.761 73.6483 178.681H72.6483ZM72.6735 179.05C72.8522 180.348 73.9587 181.351 75.3033 181.351V180.351C74.4703 180.351 73.7763 179.729 73.6641 178.914L72.6735 179.05ZM75.7599 176.512V148.821H74.7599V176.512H75.7599ZM47.9724 179.05C47.989 178.93 47.9976 178.806 47.9976 178.681H46.9976C46.9976 178.761 46.9922 178.838 46.9817 178.914L47.9724 179.05ZM45.3426 181.351C45.3569 181.351 45.3713 181.351 45.3856 181.351L45.3698 180.351C45.3608 180.351 45.3517 180.351 45.3426 180.351V181.351ZM45.3857 181.351C46.711 181.33 47.7956 180.334 47.9724 179.05L46.9817 178.914C46.8708 179.72 46.1904 180.338 45.3696 180.351L45.3857 181.351ZM47.4771 179.482H73.1688V178.482H47.4771V179.482ZM31.1523 205.58C31.1546 205.529 31.1558 205.479 31.1558 205.428H30.1558C30.1558 205.463 30.155 205.498 30.1534 205.533L31.1523 205.58ZM28.0112 208.591C28.2141 208.591 28.4129 208.572 28.6058 208.535L28.4167 207.553C28.2857 207.578 28.1503 207.591 28.0112 207.591V208.591ZM28.6058 208.535C30.0127 208.263 31.0832 207.052 31.1523 205.58L30.1534 205.533C30.106 206.542 29.3722 207.369 28.4166 207.553L28.6058 208.535ZM30.6535 206.056L66.2295 206.009L66.2282 205.009L30.6521 205.056L30.6535 206.056ZM30.2545 234.306C30.2545 233.286 29.5817 232.424 28.6553 232.145L28.3671 233.102C28.8789 233.256 29.2545 233.736 29.2545 234.306H30.2545ZM28.6553 232.145C28.4507 232.083 28.2344 232.05 28.0112 232.05V233.05C28.1356 233.05 28.255 233.069 28.3672 233.102L28.6553 232.145ZM25.7679 234.306C25.7679 234.442 25.7801 234.577 25.8035 234.707L26.7879 234.531C26.7748 234.458 26.7679 234.383 26.7679 234.306H25.7679ZM25.8035 234.707C25.9919 235.759 26.906 236.561 28.0112 236.561V235.561C27.4036 235.561 26.8932 235.119 26.7879 234.531L25.8035 234.707ZM20.8301 235.119H26.2957V234.119H20.8301V235.119ZM28.0112 208.044V232.624H29.0112V208.044H28.0112ZM6.63871 234.684C6.65505 234.56 6.66345 234.434 6.66345 234.306H5.66345C5.66345 234.39 5.65792 234.473 5.64725 234.554L6.63871 234.684ZM3.81442 237.171C5.26298 237.171 6.45436 236.085 6.63871 234.684L5.64725 234.554C5.52683 235.469 4.74931 236.171 3.81442 236.171V237.171ZM6.14298 235.119H10.4075V234.119H6.14298V235.119ZM37.0247 250.814C37.0324 250.742 37.0363 250.669 37.0363 250.596H36.0363C36.0363 250.634 36.0343 250.671 36.0304 250.708L37.0247 250.814ZM35.0214 252.621C36.0637 252.621 36.9165 251.828 37.0247 250.814L36.0304 250.708C35.9753 251.224 35.5417 251.621 35.0214 251.621V252.621ZM73.0046 225.63C71.9614 225.63 71.1082 226.425 71.001 227.44L71.9955 227.545C72.0501 227.028 72.4839 226.63 73.0046 226.63V225.63ZM71.001 227.44C70.9935 227.511 70.9897 227.583 70.9897 227.655H71.9897C71.9897 227.618 71.9917 227.581 71.9955 227.545L71.001 227.44ZM48.0977 227.655C48.0977 227.588 48.0953 227.522 48.0905 227.456L47.0931 227.528C47.0961 227.57 47.0977 227.612 47.0977 227.655H48.0977ZM48.0905 227.456C47.989 226.049 46.8229 224.935 45.3926 224.935V225.935C46.289 225.935 47.0287 226.635 47.0931 227.528L48.0905 227.456ZM45.3926 224.935C45.3866 224.935 45.3806 224.935 45.3746 224.935L45.3808 225.935C45.3847 225.935 45.3887 225.935 45.3926 225.935V224.935ZM45.3743 224.935C43.8856 224.945 42.6876 226.162 42.6876 227.655H43.6876C43.6876 226.706 44.4479 225.941 45.381 225.935L45.3743 224.935ZM45.8777 225.435V180.851H44.8777V225.435H45.8777ZM47.5918 227.992H71.4983V226.992H47.5918V227.992ZM64.2139 250.596C64.2139 250.669 64.2178 250.742 64.2255 250.814L65.2198 250.708C65.2159 250.671 65.2139 250.634 65.2139 250.596H64.2139ZM64.2255 250.814C64.3338 251.828 65.1865 252.621 66.2288 252.621V251.621C65.7086 251.621 65.275 251.224 65.2198 250.708L64.2255 250.814ZM64.7226 250.261H36.5276V251.261H64.7226V250.261ZM68.2437 269.966C68.2437 269.905 68.241 269.845 68.2358 269.785L67.2396 269.873C67.2424 269.904 67.2437 269.935 67.2437 269.966H68.2437ZM68.2358 269.785C68.1445 268.754 67.2832 267.941 66.2291 267.941L66.2285 268.941C66.7552 268.941 67.1932 269.348 67.2396 269.873L68.2358 269.785ZM96.7073 267.941C95.6523 267.941 94.7916 268.754 94.7003 269.785L95.6964 269.873C95.7429 269.348 96.1807 268.941 96.7073 268.941V267.941ZM94.7003 269.785C94.695 269.845 94.6923 269.905 94.6923 269.966H95.6923C95.6923 269.935 95.6937 269.904 95.6964 269.873L94.7003 269.785ZM67.7377 270.329H95.1984V269.329H67.7377V270.329ZM107.904 264.948C107.912 264.854 107.916 264.759 107.916 264.663H106.916C106.916 264.731 106.913 264.798 106.908 264.864L107.904 264.948ZM104.613 267.986C104.645 267.986 104.678 267.985 104.711 267.984L104.681 266.985C104.659 266.986 104.636 266.986 104.613 266.986V267.986ZM104.711 267.984C106.398 267.935 107.763 266.615 107.904 264.948L106.908 264.864C106.809 266.032 105.852 266.95 104.682 266.985L104.711 267.984ZM107.406 265.406H126.645V264.406H107.406V265.406ZM98.9166 247.867C98.9166 246.29 97.7912 244.974 96.299 244.694L96.1144 245.677C97.1377 245.869 97.9166 246.775 97.9166 247.867H98.9166ZM96.299 244.694C96.1067 244.658 95.9087 244.639 95.7067 244.639V245.639C95.8464 245.639 95.9826 245.652 96.1144 245.677L96.299 244.694ZM82.845 293.74C82.8475 293.693 82.8487 293.645 82.8487 293.598H81.8487C81.8487 293.628 81.8479 293.659 81.8463 293.689L82.845 293.74ZM80.1351 296.326C81.5892 296.326 82.7713 295.178 82.845 293.74L81.8463 293.689C81.7994 294.604 81.0482 295.326 80.1351 295.326V296.326ZM106.892 293.598C106.892 292.371 105.932 291.365 104.72 291.309L104.673 292.308C105.348 292.339 105.892 292.902 105.892 293.598H106.892ZM104.72 291.309C104.684 291.307 104.648 291.306 104.613 291.306V292.306C104.633 292.306 104.653 292.307 104.673 292.308L104.72 291.309ZM102.334 293.598C102.334 293.647 102.335 293.697 102.338 293.746L103.336 293.682C103.335 293.654 103.334 293.626 103.334 293.598H102.334ZM102.338 293.746C102.415 294.94 103.401 295.889 104.613 295.889V294.889C103.938 294.889 103.38 294.359 103.336 293.682L102.338 293.746ZM82.3457 294.214H102.837V293.214H82.3457V294.214ZM105.196 291.808V267.485H104.196V291.808H105.196ZM107.163 227.372C107.165 227.331 107.166 227.289 107.166 227.247H106.166C106.166 227.273 106.165 227.299 106.164 227.325L107.163 227.372ZM104.613 229.815C105.984 229.815 107.098 228.729 107.163 227.372L106.164 227.325C106.124 228.157 105.442 228.815 104.613 228.815V229.815ZM106.664 226.848H105.723V227.848H106.664V226.848ZM129.481 224.68C129.267 224.68 129.058 224.706 128.859 224.757L129.103 225.726C129.223 225.696 129.35 225.68 129.481 225.68V224.68ZM128.859 224.757C127.747 225.037 126.927 226.047 126.927 227.247H127.927C127.927 226.512 128.429 225.896 129.103 225.726L128.859 224.757ZM126.927 227.247C126.927 227.289 126.928 227.331 126.93 227.372L127.929 227.325C127.928 227.299 127.927 227.273 127.927 227.247H126.927ZM126.93 227.372C126.985 228.508 127.834 229.435 128.841 229.727L129.12 228.766C128.475 228.579 127.961 227.985 127.929 227.325L126.93 227.372ZM128.841 229.727C129.072 229.794 129.241 229.815 129.481 229.815V228.815C129.325 228.815 129.251 228.804 129.12 228.766L128.841 229.727ZM128.481 229.247V240.836H129.481V229.247H128.481ZM127.43 226.848H106.664V227.848H127.43V226.848ZM125.91 197.171C125.91 198.921 127.23 200.365 128.929 200.541L129.032 199.546C127.843 199.423 126.91 198.409 126.91 197.171H125.91ZM128.929 200.541C129.044 200.552 129.16 200.559 129.277 200.559V199.559C129.194 199.559 129.112 199.554 129.032 199.546L128.929 200.541ZM129.481 225.242V200.043H128.481V225.242H129.481ZM96.299 208.546C97.7912 208.266 98.9166 206.95 98.9166 205.372H97.9166C97.9166 206.465 97.1377 207.371 96.1144 207.563L96.299 208.546ZM92.4969 205.372C92.4969 205.413 92.4976 205.453 92.4991 205.493L93.4984 205.456C93.4974 205.428 93.4969 205.401 93.4969 205.372H92.4969ZM92.4991 205.493C92.562 207.217 93.9709 208.601 95.7067 208.601V207.601C94.5171 207.601 93.542 206.651 93.4984 205.456L92.4991 205.493ZM95.7067 208.601C95.9087 208.601 96.1067 208.582 96.299 208.546L96.1144 207.563C95.9826 207.588 95.8464 207.601 95.7067 207.601V208.601ZM76.6521 205.996L92.9994 205.974L92.9981 204.974L76.6508 204.996L76.6521 205.996ZM95.7067 208.055V245.185H96.7067V208.055H95.7067ZM105.058 185.311C105.058 185.295 105.058 185.279 105.058 185.263H104.058C104.058 185.271 104.058 185.278 104.058 185.285L105.058 185.311ZM103.288 187.043C104.253 187.043 105.033 186.269 105.058 185.311L104.058 185.285C104.047 185.708 103.703 186.043 103.288 186.043V187.043ZM124.639 185.263C124.639 185.279 124.639 185.295 124.64 185.311L125.639 185.285C125.639 185.278 125.639 185.271 125.639 185.263H124.639ZM124.64 185.311C124.665 186.269 125.444 187.043 126.41 187.043V186.043C125.994 186.043 125.65 185.708 125.639 185.285L124.64 185.311ZM104.558 185.798H125.139V184.798H104.558V185.798ZM103.446 172.098C104.353 172.017 105.058 171.252 105.058 170.326H104.058C104.058 170.735 103.747 171.067 103.357 171.102L103.446 172.098ZM103.288 172.105C103.341 172.105 103.394 172.103 103.446 172.098L103.357 171.102C103.335 171.104 103.311 171.105 103.288 171.105V172.105ZM103.902 183.989V171.6H102.902V183.989H103.902ZM97.2073 268.441L97.2073 262.487L96.2073 262.487L96.2073 268.441L97.2073 268.441ZM97.2073 262.487L97.2072 256.534L96.2072 256.534L96.2073 262.487L97.2073 262.487ZM72.5046 229.182L72.5552 247.239L73.5552 247.236L73.5046 229.179L72.5046 229.182ZM132.144 197.671H142.82V196.671H132.144V197.671ZM95.7067 197.671H126.41V196.671H95.7067V197.671ZM95.2067 197.171V202.644H96.2067V197.171H95.2067ZM74.0649 247.735C73.7856 247.74 73.556 247.515 73.5552 247.236L72.5552 247.239C72.5576 248.077 73.2463 248.751 74.0843 248.734L74.0649 247.735Z" fill="white"/>
</g>
</svg>
