<svg width="400" height="400" viewBox="0 0 400 400" fill="none" xmlns="http://www.w3.org/2000/svg">
<g clip-path="url(#clip0_4568_1104)">
<mask id="mask0_4568_1104" style="mask-type:alpha" maskUnits="userSpaceOnUse" x="-320" y="-155" width="1040" height="692">
<rect x="-320" y="-155" width="1040" height="692" fill="url(#paint0_diamond_4568_1104)"/>
</mask>
<g mask="url(#mask0_4568_1104)">
<g opacity="0.9">
<circle cx="306.725" cy="241.544" r="0.588154" fill="white" fill-opacity="0.5"/>
<circle cx="101.429" cy="179.009" r="0.727769" fill="white" fill-opacity="0.3"/>
<circle cx="391.781" cy="137.579" r="0.584368" fill="white" fill-opacity="0.5"/>
<circle cx="45.527" cy="198.716" r="0.537511" fill="white" fill-opacity="0.6"/>
<circle cx="207.165" cy="357.867" r="0.513304" fill="white" fill-opacity="0.4"/>
<circle cx="165.457" cy="292.282" r="0.588391" fill="white" fill-opacity="0.4"/>
<circle cx="329.722" cy="260.562" r="0.70342" fill="white" fill-opacity="0.5"/>
<circle cx="42.0307" cy="147.963" r="0.52233" fill="white" fill-opacity="0.6"/>
<circle cx="396.801" cy="292.821" r="0.630617" fill="white" fill-opacity="0.4"/>
<circle cx="55.626" cy="329.191" r="0.688046" fill="white" fill-opacity="0.4"/>
<circle cx="46.6367" cy="369.944" r="0.652679" fill="white" fill-opacity="0.3"/>
<circle cx="2.37779" cy="216.251" r="0.663497" fill="white" fill-opacity="0.5"/>
<circle cx="52.4582" cy="-0.286993" r="0.504358" fill="white" fill-opacity="0.5"/>
<circle cx="152.516" cy="90.3195" r="0.580193" fill="white" fill-opacity="0.6"/>
<circle cx="51.1016" cy="48.5963" r="0.640384" fill="white" fill-opacity="0.5"/>
<circle cx="192.764" cy="251.938" r="0.535996" fill="white" fill-opacity="0.5"/>
<circle cx="258.886" cy="232.007" r="0.501624" fill="white" fill-opacity="0.3"/>
<circle cx="233.102" cy="330.081" r="0.583311" fill="white" fill-opacity="0.5"/>
<circle cx="104.272" cy="362.914" r="0.585889" fill="white" fill-opacity="0.3"/>
<circle cx="45.0332" cy="367.843" r="0.540806" fill="white" fill-opacity="0.5"/>
<circle cx="98.7993" cy="42.5727" r="0.585598" fill="white" fill-opacity="0.5"/>
<circle cx="66.0384" cy="326.67" r="0.654347" fill="white" fill-opacity="0.3"/>
<circle cx="239.728" cy="286.964" r="0.741734" fill="white" fill-opacity="0.4"/>
<circle cx="260.972" cy="91.8299" r="0.597816" fill="white" fill-opacity="0.6"/>
<circle cx="147.058" cy="339.045" r="0.593615" fill="white" fill-opacity="0.4"/>
<circle cx="44.7317" cy="215.827" r="0.736247" fill="white" fill-opacity="0.5"/>
<circle cx="352.628" cy="358.579" r="0.7279" fill="white" fill-opacity="0.6"/>
<circle cx="235.665" cy="376.418" r="0.659493" fill="white" fill-opacity="0.6"/>
<circle cx="303.789" cy="336.6" r="0.635731" fill="white" fill-opacity="0.3"/>
<circle cx="143.565" cy="102.758" r="0.58307" fill="white" fill-opacity="0.3"/>
<circle cx="353.957" cy="59.4636" r="0.564361" fill="white" fill-opacity="0.5"/>
<circle cx="41.6225" cy="30.1641" r="0.612758" fill="white" fill-opacity="0.4"/>
<circle cx="371.949" cy="284.385" r="0.650042" fill="white" fill-opacity="0.5"/>
<circle cx="232.103" cy="86.8377" r="0.579691" fill="white" fill-opacity="0.5"/>
<circle cx="152.081" cy="134.156" r="0.642991" fill="white" fill-opacity="0.4"/>
<circle cx="134.759" cy="335.203" r="0.730773" fill="white" fill-opacity="0.6"/>
<circle cx="153.454" cy="383.743" r="0.52348" fill="white" fill-opacity="0.4"/>
<circle cx="27.5822" cy="275.778" r="0.49957" fill="white" fill-opacity="0.5"/>
<circle cx="167.443" cy="379.327" r="0.58452" fill="white" fill-opacity="0.5"/>
<circle cx="213.723" cy="71.9384" r="0.60346" fill="white" fill-opacity="0.6"/>
<circle cx="80.5208" cy="307.328" r="0.711539" fill="white" fill-opacity="0.4"/>
<circle cx="134.75" cy="372.003" r="0.721692" fill="white" fill-opacity="0.4"/>
<circle cx="104.214" cy="269.837" r="0.527579" fill="white" fill-opacity="0.4"/>
<circle cx="105.779" cy="279.362" r="0.601467" fill="white" fill-opacity="0.3"/>
<circle cx="322.621" cy="343.992" r="0.566489" fill="white" fill-opacity="0.5"/>
<circle cx="293.921" cy="219.786" r="0.716571" fill="white" fill-opacity="0.6"/>
<circle cx="-0.202787" cy="52.5057" r="0.57004" fill="white" fill-opacity="0.3"/>
<circle cx="173.882" cy="275.337" r="0.555858" fill="white" fill-opacity="0.3"/>
<circle cx="76.5515" cy="299.877" r="0.721981" fill="white" fill-opacity="0.6"/>
<circle cx="394.407" cy="265.555" r="0.723218" fill="white" fill-opacity="0.5"/>
<circle cx="197.787" cy="197.769" r="0.585356" fill="white" fill-opacity="0.3"/>
<circle cx="45.993" cy="361.341" r="0.505956" fill="white" fill-opacity="0.6"/>
<circle cx="116.706" cy="344.01" r="0.584224" fill="white" fill-opacity="0.5"/>
<circle cx="338.173" cy="104.366" r="0.698761" fill="white" fill-opacity="0.4"/>
<circle cx="65.5626" cy="160.055" r="0.676163" fill="white" fill-opacity="0.5"/>
<circle cx="391.861" cy="388.361" r="0.664624" fill="white" fill-opacity="0.4"/>
<circle cx="83.5072" cy="203.866" r="0.713302" fill="white" fill-opacity="0.4"/>
<circle cx="29.6881" cy="318.175" r="0.61549" fill="white" fill-opacity="0.5"/>
<circle cx="234.686" cy="282.918" r="0.675028" fill="white" fill-opacity="0.3"/>
<circle cx="70.4802" cy="13.2576" r="0.618431" fill="white" fill-opacity="0.4"/>
<circle cx="342.132" cy="167.02" r="0.677761" fill="white" fill-opacity="0.4"/>
<circle cx="105.854" cy="79.9696" r="0.67592" fill="white" fill-opacity="0.4"/>
<circle cx="299.398" cy="216.807" r="0.72189" fill="white" fill-opacity="0.5"/>
<circle cx="337.542" cy="28.6233" r="0.564214" fill="white" fill-opacity="0.6"/>
<circle cx="4.24801" cy="327.058" r="0.544674" fill="white" fill-opacity="0.4"/>
<circle cx="54.1691" cy="39.7252" r="0.7226" fill="white" fill-opacity="0.6"/>
<circle cx="373.534" cy="167.085" r="0.742375" fill="white" fill-opacity="0.4"/>
<circle cx="366.343" cy="11.6616" r="0.515106" fill="white" fill-opacity="0.4"/>
<circle cx="133.08" cy="234.039" r="0.543964" fill="white" fill-opacity="0.3"/>
<circle cx="244.675" cy="54.6405" r="0.715312" fill="white" fill-opacity="0.6"/>
<circle cx="141.592" cy="229.12" r="0.599271" fill="white" fill-opacity="0.5"/>
<circle cx="371.525" cy="208.849" r="0.722801" fill="white" fill-opacity="0.5"/>
<circle cx="268.022" cy="193.887" r="0.68382" fill="white" fill-opacity="0.3"/>
<circle cx="232.681" cy="335.629" r="0.660171" fill="white" fill-opacity="0.4"/>
<circle cx="333.159" cy="38.1693" r="0.659152" fill="white" fill-opacity="0.3"/>
<circle cx="280.344" cy="69.418" r="0.570014" fill="white" fill-opacity="0.4"/>
<circle cx="149.625" cy="187.909" r="0.673916" fill="white" fill-opacity="0.4"/>
<circle cx="87.415" cy="183.896" r="0.64133" fill="white" fill-opacity="0.4"/>
<circle cx="269.544" cy="322.75" r="0.713764" fill="white" fill-opacity="0.5"/>
<circle cx="296.724" cy="330.033" r="0.534928" fill="white" fill-opacity="0.5"/>
<circle cx="246.02" cy="77.3751" r="0.568432" fill="white" fill-opacity="0.6"/>
<circle cx="175.362" cy="19.6504" r="0.544897" fill="white" fill-opacity="0.4"/>
<circle cx="248.526" cy="216.673" r="0.587311" fill="white" fill-opacity="0.6"/>
<circle cx="357.9" cy="357.386" r="0.529457" fill="white" fill-opacity="0.5"/>
<circle cx="6.73582" cy="68.3986" r="0.545294" fill="white" fill-opacity="0.6"/>
<circle cx="229.748" cy="269.026" r="0.711397" fill="white" fill-opacity="0.6"/>
<circle cx="1.94256" cy="207.36" r="0.726376" fill="white" fill-opacity="0.4"/>
<circle cx="47.0808" cy="190.32" r="0.598171" fill="white" fill-opacity="0.5"/>
<circle cx="369.963" cy="94.8704" r="0.653553" fill="white" fill-opacity="0.4"/>
<circle cx="314.275" cy="59.078" r="0.676161" fill="white" fill-opacity="0.5"/>
<circle cx="141.17" cy="110.311" r="0.674907" fill="white" fill-opacity="0.5"/>
<circle cx="171.581" cy="54.1698" r="0.742075" fill="white" fill-opacity="0.5"/>
<circle cx="375.951" cy="315.744" r="0.671507" fill="white" fill-opacity="0.6"/>
<circle cx="184.879" cy="90.3503" r="0.610923" fill="white" fill-opacity="0.6"/>
<circle cx="135.716" cy="219.264" r="0.691733" fill="white" fill-opacity="0.4"/>
<circle cx="127.201" cy="54.062" r="0.634272" fill="white" fill-opacity="0.5"/>
<circle cx="388.222" cy="63.8841" r="0.507941" fill="white" fill-opacity="0.3"/>
<circle cx="367.86" cy="362.867" r="0.539254" fill="white" fill-opacity="0.5"/>
<circle cx="39.0233" cy="237.477" r="0.500722" fill="white" fill-opacity="0.3"/>
<circle cx="2.9491" cy="171.059" r="0.737793" fill="white" fill-opacity="0.5"/>
<circle cx="87.0059" cy="388.924" r="0.729685" fill="white" fill-opacity="0.5"/>
<circle cx="154.643" cy="363.045" r="0.717263" fill="white" fill-opacity="0.6"/>
<circle cx="177.859" cy="290.259" r="0.55477" fill="white" fill-opacity="0.5"/>
<circle cx="1.2674" cy="305.174" r="0.547673" fill="white" fill-opacity="0.5"/>
<circle cx="62.9153" cy="91.2504" r="0.515932" fill="white" fill-opacity="0.4"/>
<circle cx="306.792" cy="4.34058" r="0.6554" fill="white" fill-opacity="0.4"/>
<circle cx="205.747" cy="230.102" r="0.585867" fill="white" fill-opacity="0.6"/>
<circle cx="37.5354" cy="268.321" r="0.504308" fill="white" fill-opacity="0.4"/>
<circle cx="225.222" cy="351.549" r="0.661693" fill="white" fill-opacity="0.3"/>
<circle cx="156.949" cy="382.762" r="0.537431" fill="white" fill-opacity="0.4"/>
<circle cx="192.4" cy="32.2119" r="0.670574" fill="white" fill-opacity="0.6"/>
<circle cx="73.4383" cy="6.76542" r="0.592877" fill="white" fill-opacity="0.3"/>
<circle cx="121.809" cy="56.1307" r="0.712811" fill="white" fill-opacity="0.5"/>
<circle cx="314.624" cy="350.918" r="0.527745" fill="white" fill-opacity="0.6"/>
<circle cx="206.173" cy="225.056" r="0.515249" fill="white" fill-opacity="0.3"/>
<circle cx="121.723" cy="269.439" r="0.626754" fill="white" fill-opacity="0.4"/>
<circle cx="85.9698" cy="261.542" r="0.68874" fill="white" fill-opacity="0.6"/>
<circle cx="379.436" cy="216.76" r="0.674978" fill="white" fill-opacity="0.6"/>
<circle cx="283.295" cy="54.4612" r="0.53598" fill="white" fill-opacity="0.5"/>
<circle cx="330.547" cy="294.217" r="0.533344" fill="white" fill-opacity="0.6"/>
<circle cx="191.34" cy="60.4989" r="0.604646" fill="white" fill-opacity="0.5"/>
<circle cx="337.998" cy="375.784" r="0.523421" fill="white" fill-opacity="0.4"/>
<circle cx="39.1855" cy="145.617" r="0.662849" fill="white" fill-opacity="0.4"/>
<circle cx="1.73231" cy="50.4618" r="0.51612" fill="white" fill-opacity="0.4"/>
<circle cx="251.936" cy="257.389" r="0.515374" fill="white" fill-opacity="0.4"/>
<circle cx="265.96" cy="377.365" r="0.611739" fill="white" fill-opacity="0.4"/>
<circle cx="389.428" cy="233.717" r="0.719004" fill="white" fill-opacity="0.4"/>
<circle cx="264.554" cy="121.775" r="0.697625" fill="white" fill-opacity="0.4"/>
<circle cx="323.083" cy="7.20166" r="0.531582" fill="white" fill-opacity="0.5"/>
<circle cx="19.7448" cy="189.845" r="0.620611" fill="white" fill-opacity="0.3"/>
<circle cx="362.898" cy="188.781" r="0.55187" fill="white" fill-opacity="0.4"/>
<circle cx="89.4125" cy="69.0006" r="0.650359" fill="white" fill-opacity="0.3"/>
<circle cx="19.204" cy="385.289" r="0.577939" fill="white" fill-opacity="0.3"/>
<circle cx="105.694" cy="13.653" r="0.51654" fill="white" fill-opacity="0.3"/>
<circle cx="203.197" cy="344.447" r="0.523093" fill="white" fill-opacity="0.6"/>
<circle cx="141.682" cy="70.0347" r="0.689402" fill="white" fill-opacity="0.5"/>
<circle cx="191.271" cy="283.774" r="0.536275" fill="white" fill-opacity="0.5"/>
<circle cx="205.798" cy="275.915" r="0.636983" fill="white" fill-opacity="0.4"/>
<circle cx="144.974" cy="10.6512" r="0.499086" fill="white" fill-opacity="0.6"/>
<circle cx="84.4373" cy="98.3467" r="0.648281" fill="white" fill-opacity="0.3"/>
<circle cx="246.566" cy="141.592" r="0.617298" fill="white" fill-opacity="0.5"/>
<circle cx="3.37444" cy="7.33572" r="0.665642" fill="white" fill-opacity="0.5"/>
<circle cx="221.199" cy="287.339" r="0.619778" fill="white" fill-opacity="0.4"/>
<circle cx="146.548" cy="91.316" r="0.581568" fill="white" fill-opacity="0.5"/>
</g>
<g opacity="0.1">
<g clip-path="url(#clip1_4568_1104)">
<path d="M0 3.05176e-05V862.987" stroke="white" stroke-width="0.654481"/>
<path d="M41.8868 9.15527e-05V862.987" stroke="white" stroke-width="0.654481"/>
<path d="M83.7736 9.15527e-05V862.987" stroke="white" stroke-width="0.654481"/>
<path d="M125.66 9.15527e-05V862.987" stroke="white" stroke-width="0.654481"/>
<path d="M167.547 9.15527e-05V862.987" stroke="white" stroke-width="0.654481"/>
<path d="M209.434 3.05176e-05V862.987" stroke="white" stroke-width="0.654481"/>
<path d="M251.321 9.15527e-05V862.987" stroke="white" stroke-width="0.654481"/>
<path d="M293.208 9.15527e-05V862.987" stroke="white" stroke-width="0.654481"/>
<path d="M335.094 9.15527e-05V862.987" stroke="white" stroke-width="0.654481"/>
</g>
<g clip-path="url(#clip2_4568_1104)">
<path d="M0 3.05176e-05L400 3.05176e-05" stroke="white" stroke-width="0.654481"/>
<path d="M0 41.8868L400 41.8868" stroke="white" stroke-width="0.654481"/>
<path d="M0 83.7736L400 83.7736" stroke="white" stroke-width="0.654481"/>
<path d="M0 125.66L400 125.66" stroke="white" stroke-width="0.654481"/>
<path d="M0 167.547L400 167.547" stroke="white" stroke-width="0.654481"/>
<path d="M0 209.434L400 209.434" stroke="white" stroke-width="0.654481"/>
<path d="M0 251.321L400 251.321" stroke="white" stroke-width="0.654481"/>
<path d="M0 293.207H400" stroke="white" stroke-width="0.654481"/>
<path d="M0 335.094H400" stroke="white" stroke-width="0.654481"/>
<path d="M0 376.981H400" stroke="white" stroke-width="0.654481"/>
</g>
</g>
</g>
</g>
<defs>
<radialGradient id="paint0_diamond_4568_1104" cx="0" cy="0" r="1" gradientUnits="userSpaceOnUse" gradientTransform="translate(200 144.369) rotate(90) scale(376.812 876.393)">
<stop stop-color="white"/>
<stop offset="1" stop-color="#D9D9D9" stop-opacity="0"/>
</radialGradient>
<clipPath id="clip0_4568_1104">
<rect width="400" height="400" fill="white"/>
</clipPath>
<clipPath id="clip1_4568_1104">
<rect width="375" height="705" fill="white"/>
</clipPath>
<clipPath id="clip2_4568_1104">
<rect width="400" height="400" fill="white"/>
</clipPath>
</defs>
</svg>
