<svg xmlns="http://www.w3.org/2000/svg" width="40" height="40" fill="none"><path fill="url(#a)" d="M3.5 6.375A2.875 2.875 0 0 1 6.375 3.5h17.412a2.875 2.875 0 0 1 2.876 2.875v24.92a2.875 2.875 0 0 1-2.876 2.875H6.375A2.875 2.875 0 0 1 3.5 31.295V6.375Z"/><path fill="#fff" d="M12.126 29.458a2.955 2.955 0 1 1 5.91 0v4.712h-5.91v-4.712ZM7.334 10.21c0-.53.429-.96.958-.96h1.917c.53 0 .959.43.959.96v1.916c0 .53-.43.959-.959.959H8.292a.958.958 0 0 1-.958-.959V10.21ZM13.085 10.21c0-.53.429-.96.958-.96h1.917c.53 0 .958.43.958.96v1.916c0 .53-.429.959-.958.959h-1.917a.958.958 0 0 1-.958-.959V10.21ZM18.835 10.21c0-.53.43-.96.959-.96h1.917c.529 0 .958.43.958.96v1.916c0 .53-.43.959-.958.959h-1.917a.958.958 0 0 1-.959-.959V10.21ZM7.334 17.877c0-.53.429-.959.958-.959h1.917c.53 0 .959.43.959.959v1.917c0 .529-.43.958-.959.958H8.292a.958.958 0 0 1-.958-.958v-1.917ZM13.085 17.877c0-.53.429-.959.958-.959h1.917c.53 0 .958.43.958.959v1.917c0 .529-.429.958-.958.958h-1.917a.958.958 0 0 1-.958-.958v-1.917ZM18.835 17.877c0-.53.43-.959.959-.959h1.917c.529 0 .958.43.958.959v1.917c0 .529-.43.958-.958.958h-1.917a.958.958 0 0 1-.959-.958v-1.917Z"/><g filter="url(#b)"><path fill="#21D4FD" fill-opacity=".4" d="M36.74 27.87a8.87 8.87 0 1 1-17.74 0 8.87 8.87 0 0 1 17.74 0Z"/></g><path fill="#fff" d="M30.362 25.515a2.51 2.51 0 0 1-2.503 2.516 2.509 2.509 0 0 1-2.502-2.516c0-1.389 1.12-2.515 2.502-2.515a2.51 2.51 0 0 1 2.503 2.515ZM23.5 31.924c0-1.657 1.337-3 2.985-3h2.829a2.993 2.993 0 0 1 2.986 3 .973.973 0 0 1-.97.975h-6.86a.973.973 0 0 1-.97-.975Z"/><defs><linearGradient id="a" x1="4.787" x2="25.922" y1="8.407" y2="8.475" gradientUnits="userSpaceOnUse"><stop stop-color="#21D4FD"/><stop offset="1" stop-color="#2152FF"/></linearGradient><filter id="b" width="17.94" height="17.84" x="19" y="19" color-interpolation-filters="sRGB" filterUnits="userSpaceOnUse"><feFlood flood-opacity="0" result="BackgroundImageFix"/><feBlend in="SourceGraphic" in2="BackgroundImageFix" result="shape"/><feColorMatrix in="SourceAlpha" result="hardAlpha" values="0 0 0 0 0 0 0 0 0 0 0 0 0 0 0 0 0 0 127 0"/><feOffset dx=".2" dy=".1"/><feGaussianBlur stdDeviation=".5"/><feComposite in2="hardAlpha" k2="-1" k3="1" operator="arithmetic"/><feColorMatrix values="0 0 0 0 1 0 0 0 0 1 0 0 0 0 1 0 0 0 0.6 0"/><feBlend in2="shape" result="effect1_innerShadow_106_238"/></filter></defs></svg>