<svg xmlns="http://www.w3.org/2000/svg" width="40" height="40" fill="none"><path fill="#82E12F" fill-opacity=".4" d="M29.294 10.438A2.438 2.438 0 0 1 31.73 8h3.831A2.438 2.438 0 0 1 38 10.438V29.94a2.438 2.438 0 0 1-2.438 2.438h-3.83a2.438 2.438 0 0 1-2.438-2.438V10.438Z"/><path fill="#fff" d="M35.388 26.284a1.741 1.741 0 1 1-3.483 0 1.741 1.741 0 0 1 3.483 0ZM31.905 15.836c0-.481.39-.87.871-.87h1.741a.87.87 0 0 1 0 1.74h-1.74a.87.87 0 0 1-.872-.87ZM31.905 12.353c0-.48.39-.87.871-.87h1.741a.87.87 0 0 1 0 1.74h-1.74a.87.87 0 0 1-.872-.87Z"/><path fill="url(#a)" fill-rule="evenodd" d="M5.438 8A2.438 2.438 0 0 0 3 10.438v14.278a2.438 2.438 0 0 0 2.438 2.438h19.676a2.438 2.438 0 0 0 2.438-2.438V10.438A2.438 2.438 0 0 0 25.114 8H5.438Zm18.632 3.483H6.483v12.189H24.07v-12.19Z" clip-rule="evenodd"/><path fill="url(#b)" d="M6.657 30.289c0-.77.623-1.394 1.393-1.394h14.627c.769 0 1.393.624 1.393 1.394v.696c0 .77-.624 1.393-1.393 1.393H8.05c-.77 0-1.393-.624-1.393-1.393v-.696Z"/><path fill="url(#c)" d="M13.012 27.154h4.528l.61 1.741h-5.747l.61-1.74Z"/><path fill="#82E12F" fill-opacity=".4" d="M6.483 11.483H24.07v12.189H6.483v-12.19Z"/><defs><linearGradient id="a" x1="3.93" x2="27.511" y1="13.363" y2="15.687" gradientUnits="userSpaceOnUse"><stop stop-color="#82E12F"/><stop offset="1" stop-color="#2CB735"/></linearGradient><linearGradient id="b" x1="3.93" x2="27.511" y1="13.363" y2="15.687" gradientUnits="userSpaceOnUse"><stop stop-color="#82E12F"/><stop offset="1" stop-color="#2CB735"/></linearGradient><linearGradient id="c" x1="3.93" x2="27.511" y1="13.363" y2="15.687" gradientUnits="userSpaceOnUse"><stop stop-color="#82E12F"/><stop offset="1" stop-color="#2CB735"/></linearGradient></defs></svg>