<svg xmlns="http://www.w3.org/2000/svg" width="40" height="40" fill="none"><path fill="url(#a)" d="M37.5 25.484a8.871 8.871 0 1 1-17.742 0 8.871 8.871 0 0 1 17.742 0Z"/><path fill="#82E12F" fill-opacity=".4" d="M2.5 14.677h27.258V28.71a3.548 3.548 0 0 1-3.548 3.548H6.048A3.548 3.548 0 0 1 2.5 28.71V14.677Z"/><path fill="url(#b)" d="M5.94 5.732A1.29 1.29 0 0 1 7.102 5h8.139v7.903H2.5l3.44-7.17Z"/><path fill="url(#c)" d="M26.319 5.732A1.29 1.29 0 0 0 25.156 5h-8.14v7.903h12.742l-3.439-7.17Z"/><path fill="#fff" d="M24.567 26.137a.96.96 0 0 1 1.323-1.39l3.187 3.033-.662.695a.96.96 0 0 1-1.357.033l-2.49-2.371Z"/><path fill="#fff" d="m27.674 26.454 3.538-3.749a.967.967 0 0 1 1.406 1.327l-3.538 3.75-1.406-1.328Z"/><defs><linearGradient id="a" x1="20.43" x2="37.472" y1="20.516" y2="22.184" gradientUnits="userSpaceOnUse"><stop stop-color="#82E12F"/><stop offset="1" stop-color="#2CB735"/></linearGradient><linearGradient id="b" x1="3.533" x2="29.716" y1="10.997" y2="13.559" gradientUnits="userSpaceOnUse"><stop stop-color="#82E12F"/><stop offset="1" stop-color="#2CB735"/></linearGradient><linearGradient id="c" x1="3.533" x2="29.716" y1="10.997" y2="13.559" gradientUnits="userSpaceOnUse"><stop stop-color="#82E12F"/><stop offset="1" stop-color="#2CB735"/></linearGradient></defs></svg>