<svg xmlns="http://www.w3.org/2000/svg" width="40" height="40" fill="none"><path fill="url(#a)" d="M6.764 5.021s23.714-.15 24.695 0c4.62.711-5.596 10.838-5.596 10.838s9.683 9.95 5.596 10.66c-.962.167-24.695 0-24.695 0V5.02Z"/><path fill="#fff" d="M16.318 10.978a.533.533 0 0 1 .968 0l1.02 2.212a.533.533 0 0 0 .421.306l2.419.287a.533.533 0 0 1 .3.92l-1.789 1.654a.533.533 0 0 0-.16.495l.474 2.389a.533.533 0 0 1-.783.569l-2.126-1.19a.533.533 0 0 0-.52 0l-2.126 1.19a.533.533 0 0 1-.783-.569l.475-2.389a.533.533 0 0 0-.16-.495l-1.79-1.654a.533.533 0 0 1 .3-.92l2.419-.287a.533.533 0 0 0 .42-.306l1.021-2.212Z"/><path fill="#FC586B" fill-opacity=".4" d="M21.866 17.076s14.317-.091 14.91 0c2.789.432-3.379 6.585-3.379 6.585s5.846 6.045 3.379 6.476c-.581.102-14.91 0-14.91 0v-13.06ZM2.5 4.954C2.5 3.875 3.375 3 4.454 3h.356c1.079 0 1.954.875 1.954 1.954v30.203c0 1.08-.875 1.955-1.954 1.955h-.356A1.954 1.954 0 0 1 2.5 35.157V4.954Z"/><defs><linearGradient id="a" x1="19.711" x2="19.711" y1="4.954" y2="26.593" gradientUnits="userSpaceOnUse"><stop stop-color="#FC586B"/><stop offset="1" stop-color="#EE181C"/></linearGradient></defs></svg>