<svg xmlns="http://www.w3.org/2000/svg" width="40" height="40" fill="none"><path fill="url(#a)" d="M3 13.56a2.52 2.52 0 0 1 2.52-2.52H27.5a2.52 2.52 0 0 1 2.52 2.52v7.56H3v-7.56Z"/><path fill="url(#b)" fill-rule="evenodd" d="M9.72 8.52A2.52 2.52 0 0 1 12.24 6h8.4a2.52 2.52 0 0 1 2.52 2.52l.018 2.52H9.72V8.52Zm2.52 0v2.52h8.4V8.52h-8.4Z" clip-rule="evenodd"/><path fill="#FAB534" fill-opacity=".4" d="M3 21.12h27.02v7.56a2.52 2.52 0 0 1-2.52 2.52H5.52A2.52 2.52 0 0 1 3 28.68v-7.56Z"/><g filter="url(#c)"><circle cx="28.41" cy="25.91" r="7.91" fill="#FAB534" fill-opacity=".4"/></g><path fill="#fff" d="M29.827 26.637a2.495 2.495 0 0 0 2.493-2.496s0-.479-.062-.645c-.063-.166-.175-.228-.27-.187-.146.062-.478.416-.478.416l-.894.894h-1.288s.042-.665.042-1.248c0-.294 2.264-1.518.83-1.727-1.433-.208-2.804.937-2.866 2.497-.063 1.56 1.116 2.496 2.493 2.496Z"/><path fill="#fff" d="M27.428 24.97c.341 1.144 1.318 1.477 1.63 1.565l-2.814 2.76a1.13 1.13 0 0 1-1.6-.014 1.134 1.134 0 0 1 .015-1.602l2.769-2.71Z"/><path fill="#fff" d="M25.962 28.385a.374.374 0 1 1-.748 0 .374.374 0 0 1 .748 0ZM12.94 21.12h7.14v1.566a.954.954 0 0 1-.954.954h-5.232a.954.954 0 0 1-.954-.954V21.12Z"/><defs><linearGradient id="a" x1="3.831" x2="26.046" y1="7.8" y2="22.834" gradientUnits="userSpaceOnUse"><stop stop-color="#FAB534"/><stop offset="1" stop-color="#F64F39"/></linearGradient><linearGradient id="b" x1="3.831" x2="26.046" y1="7.8" y2="22.834" gradientUnits="userSpaceOnUse"><stop stop-color="#FAB534"/><stop offset="1" stop-color="#F64F39"/></linearGradient><filter id="c" width="16.02" height="15.92" x="20.5" y="18" color-interpolation-filters="sRGB" filterUnits="userSpaceOnUse"><feFlood flood-opacity="0" result="BackgroundImageFix"/><feBlend in="SourceGraphic" in2="BackgroundImageFix" result="shape"/><feColorMatrix in="SourceAlpha" result="hardAlpha" values="0 0 0 0 0 0 0 0 0 0 0 0 0 0 0 0 0 0 127 0"/><feOffset dx=".2" dy=".1"/><feGaussianBlur stdDeviation=".5"/><feComposite in2="hardAlpha" k2="-1" k3="1" operator="arithmetic"/><feColorMatrix values="0 0 0 0 1 0 0 0 0 1 0 0 0 0 1 0 0 0 0.6 0"/><feBlend in2="shape" result="effect1_innerShadow_105_99"/></filter></defs></svg>