<svg xmlns="http://www.w3.org/2000/svg" width="40" height="40" fill="none"><path fill="url(#a)" d="M16.111 5.782c0-.984.798-1.782 1.782-1.782h4.213c.985 0 1.783.798 1.783 1.782v6.158H16.11V5.782Z"/><path fill="#9CACCC" fill-opacity=".4" d="M2.5 10.806A2.755 2.755 0 0 1 5.255 8.05h29.49a2.755 2.755 0 0 1 2.755 2.755v21.713a2.755 2.755 0 0 1-2.755 2.754H5.255A2.755 2.755 0 0 1 2.5 32.518V10.807Z"/><path fill="#fff" d="M14.167 12.912c0-.537.435-.972.972-.972h9.722a.972.972 0 1 1 0 1.944H15.14a.972.972 0 0 1-.972-.972Z"/><path fill="url(#b)" d="M24.05 21.581a3.97 3.97 0 1 1-7.939 0 3.97 3.97 0 0 1 7.94 0Z"/><path fill="url(#c)" d="M13.194 30.45a3.116 3.116 0 0 1 3.117-3.117h7.54a3.116 3.116 0 0 1 3.117 3.116.935.935 0 0 1-.935.935H14.129a.935.935 0 0 1-.934-.935Z"/><defs><linearGradient id="a" x1="20" x2="20" y1="4" y2="11.94" gradientUnits="userSpaceOnUse"><stop stop-color="#9CACCC"/><stop offset="1" stop-color="#7487A6"/></linearGradient><linearGradient id="b" x1="20.081" x2="20.081" y1="17.611" y2="31.384" gradientUnits="userSpaceOnUse"><stop stop-color="#9CACCC"/><stop offset="1" stop-color="#7487A6"/></linearGradient><linearGradient id="c" x1="20.081" x2="20.081" y1="17.611" y2="31.384" gradientUnits="userSpaceOnUse"><stop stop-color="#9CACCC"/><stop offset="1" stop-color="#7487A6"/></linearGradient></defs></svg>