<svg xmlns="http://www.w3.org/2000/svg" width="40" height="40" fill="none"><path fill="#E92FED" fill-opacity=".4" d="M20.142 9.573a1.541 1.541 0 0 0 .992-2.72h7.617a4.533 4.533 0 0 1 4.532 4.533v21.58a4.533 4.533 0 0 1-4.532 4.534h-17.22A4.533 4.533 0 0 1 7 32.966v-21.58a4.533 4.533 0 0 1 4.532-4.534h7.617a1.541 1.541 0 0 0 .993 2.72Z"/><path fill="url(#a)" fill-rule="evenodd" d="M27.664 12.111V9.754a2.72 2.72 0 0 0-2.719-2.72c0-2.504-1.631-4.262-4.17-4.534h-1.45c-2.356.272-4.168 2.03-4.168 4.534a2.72 2.72 0 0 0-2.72 2.72v2.357c0 .802.65 1.451 1.451 1.451h12.326c.8 0 1.45-.65 1.45-1.45ZM20.14 9.573a1.541 1.541 0 1 0 0-3.083 1.541 1.541 0 0 0 0 3.083Z" clip-rule="evenodd"/><path fill="#E92FED" fill-opacity=".4" d="M28.823 25.662a8.544 8.544 0 1 1-17.088 0 8.544 8.544 0 0 1 17.088 0Z"/><path fill="#fff" d="M19.763 20.86c.2-.379.744-.379.944 0l1.133 2.148a.534.534 0 0 0 .381.277l2.392.413c.423.073.59.59.291.899l-1.691 1.74a.534.534 0 0 0-.146.448l.346 2.403a.534.534 0 0 1-.765.555l-2.177-1.071a.534.534 0 0 0-.472 0l-2.178 1.07a.534.534 0 0 1-.764-.554l.346-2.403a.534.534 0 0 0-.146-.448l-1.692-1.74a.534.534 0 0 1 .292-.899l2.392-.413a.534.534 0 0 0 .381-.277l1.133-2.147Z"/><defs><linearGradient id="a" x1="12.438" x2="28.127" y1="4.08" y2="11.282" gradientUnits="userSpaceOnUse"><stop stop-color="#E92FED"/><stop offset="1" stop-color="#7C15CD"/></linearGradient></defs></svg>