<svg xmlns="http://www.w3.org/2000/svg" width="40" height="40" fill="none"><path fill="#03D9C4" fill-opacity=".4" d="M4 5.599A3.099 3.099 0 0 1 7.099 2.5h20.234a3.099 3.099 0 0 1 3.1 3.099v28.802a3.099 3.099 0 0 1-3.1 3.099H7.1A3.099 3.099 0 0 1 4 34.401V5.599Z"/><path fill="#03D9C4" fill-opacity=".4" d="M23 20.328c0-.733.63-1.328 1.407-1.328h9.186c.777 0 1.407.595 1.407 1.328v12.344c0 .733-.63 1.328-1.407 1.328h-9.186C23.63 34 23 33.405 23 32.672V20.328Z"/><path fill="url(#a)" d="M21.682 18.313a4.557 4.557 0 1 1-9.114 0 4.557 4.557 0 0 1 9.114 0Z"/><path fill="url(#b)" d="M9.469 30.162a5.469 5.469 0 0 1 5.469-5.47h4.557a5.469 5.469 0 0 1 5.468 5.47v.364a.911.911 0 0 1-.91.912H10.38a.911.911 0 0 1-.911-.912v-.364Z"/><path fill="#fff" d="M12.75 8.469c0-.604.49-1.094 1.094-1.094h6.745a1.094 1.094 0 1 1 0 2.188h-6.745c-.604 0-1.094-.49-1.094-1.094Z"/><defs><linearGradient id="a" x1="10.184" x2="27.086" y1="15.439" y2="21.219" gradientUnits="userSpaceOnUse"><stop stop-color="#03D9C4"/><stop offset="1" stop-color="#038F81"/></linearGradient><linearGradient id="b" x1="10.184" x2="27.086" y1="15.439" y2="21.219" gradientUnits="userSpaceOnUse"><stop stop-color="#03D9C4"/><stop offset="1" stop-color="#038F81"/></linearGradient></defs></svg>