<svg xmlns="http://www.w3.org/2000/svg" width="40" height="40" fill="none"><path fill="url(#a)" d="M6.747 18.058a3.661 3.661 0 0 1 3.661-3.66h.879c.97 0 1.757.786 1.757 1.757v6.297c0 .97-.787 1.757-1.757 1.757h-.879a3.661 3.661 0 0 1-3.661-3.66v-2.49Z"/><path fill="url(#b)" d="M26.224 20.548a3.661 3.661 0 0 1-3.661 3.661h-.879c-.97 0-1.757-.787-1.757-1.757v-6.297c0-.97.787-1.758 1.757-1.758h.879a3.661 3.661 0 0 1 3.66 3.661v2.49Z"/><path fill="#21D4FD" fill-opacity=".4" d="M30.47 17.985C30.47 10.262 24.21 4 16.486 4 8.761 4 2.5 10.261 2.5 17.985v2.49c0 .566.459 1.025 1.025 1.025h.44c.566 0 1.025-.459 1.025-1.025v-2.49c0-6.349 5.146-11.495 11.495-11.495 6.35 0 11.496 5.146 11.496 11.495v7.689a2.49 2.49 0 0 1-2.49 2.49h-5.784v2.635h6.224a4.54 4.54 0 0 0 4.54-4.54v-8.274Z"/><path fill="#21D4FD" fill-opacity=".4" d="M13.044 29.481a2.636 2.636 0 0 1 2.636-2.636h2.05a2.05 2.05 0 0 1 2.05 2.05v1.172a2.05 2.05 0 0 1-2.05 2.05h-2.05a2.636 2.636 0 0 1-2.636-2.636Z"/><circle cx="29.153" cy="27.138" r="8.347" fill="#21D4FD" fill-opacity=".4"/><path fill="#fff" d="M25.613 29.18c.033.355-.586 1.203-.966 1.701-.066.086-.012.209.097.21.64.012 1.743-.15 2.474-.893l-1.605-1.018Z"/><path fill="#fff" d="M33.546 26.938c0 1.992-2 3.607-4.466 3.607-2.467 0-4.467-1.615-4.467-3.607 0-1.992 2-3.607 4.466-3.607 2.467 0 4.467 1.614 4.467 3.607Z"/><defs><linearGradient id="a" x1="7.829" x2="25.601" y1="15.967" y2="16.116" gradientUnits="userSpaceOnUse"><stop stop-color="#21D4FD"/><stop offset="1" stop-color="#2152FF"/></linearGradient><linearGradient id="b" x1="7.829" x2="25.601" y1="15.967" y2="16.116" gradientUnits="userSpaceOnUse"><stop stop-color="#21D4FD"/><stop offset="1" stop-color="#2152FF"/></linearGradient></defs></svg>