<svg xmlns="http://www.w3.org/2000/svg" width="40" height="40" fill="none"><path fill="#21D4FD" fill-opacity=".4" d="M7.5 18a.5.5 0 0 1 .5-.5h16a.5.5 0 0 1 .5.5v2a.5.5 0 0 1-.5.5H8a.5.5 0 0 1-.5-.5v-2ZM7.5 22.5A.5.5 0 0 1 8 22h16a.5.5 0 0 1 .5.5v2a.5.5 0 0 1-.5.5H8a.5.5 0 0 1-.5-.5v-2ZM7.5 27a.5.5 0 0 1 .5-.5h16a.5.5 0 0 1 .5.5v2a.5.5 0 0 1-.5.5H8a.5.5 0 0 1-.5-.5v-2Z"/><path fill="url(#a)" d="M2.5 14.806h27.334v14.133c0 .436-.35.791-.787.797l-2.562.035a.797.797 0 0 1-.808-.797V17.482a1.48 1.48 0 0 0-1.48-1.48H8.023a1.48 1.48 0 0 0-1.48 1.48v11.4c0 .436-.351.791-.787.797l-2.449.035a.797.797 0 0 1-.808-.797V14.805Z"/><path fill="url(#b)" d="M2.557 14.862a2.34 2.34 0 0 1 1.484-2.178L15.75 8.08c.267-.105.565-.105.833 0l11.71 4.605a2.34 2.34 0 0 1 1.483 2.178H2.557Z"/><circle cx="29.274" cy="24.573" r="8.226" fill="url(#c)"/><path fill="#fff" d="M32.92 25.5a.5.5 0 0 0 0-1v1Zm-7.774-.854a.5.5 0 0 0 0 .708l3.182 3.181a.5.5 0 1 0 .707-.707L26.207 25l2.828-2.828a.5.5 0 1 0-.707-.707l-3.182 3.181Zm7.774-.146H25.5v1h7.42v-1Z"/><defs><linearGradient id="a" x1="4.019" x2="28.96" y1="11.483" y2="11.615" gradientUnits="userSpaceOnUse"><stop stop-color="#21D4FD"/><stop offset="1" stop-color="#2152FF"/></linearGradient><linearGradient id="b" x1="4.019" x2="28.96" y1="11.483" y2="11.615" gradientUnits="userSpaceOnUse"><stop stop-color="#21D4FD"/><stop offset="1" stop-color="#2152FF"/></linearGradient><linearGradient id="c" x1="21.962" x2="36.974" y1="18.979" y2="19.042" gradientUnits="userSpaceOnUse"><stop stop-color="#21D4FD"/><stop offset="1" stop-color="#2152FF"/></linearGradient></defs></svg>