<svg xmlns="http://www.w3.org/2000/svg" width="40" height="40" fill="none"><path fill="url(#a)" d="M7 6.852A4.352 4.352 0 0 1 11.352 2.5h15.233l6.71 6.71v23.938a4.352 4.352 0 0 1-4.352 4.352h-17.59A4.352 4.352 0 0 1 7 33.148V6.852Z"/><path fill="#fff" d="M17.7 22.72c0-.55.446-.997.997-.997h8.886a.997.997 0 0 1 0 1.995h-8.886a.997.997 0 0 1-.997-.998ZM17.7 29.249c0-.551.446-.998.997-.998h8.886a.997.997 0 1 1 0 1.995h-8.886a.997.997 0 0 1-.997-.997ZM15.16 22.72a1.723 1.723 0 1 1-3.445 0 1.723 1.723 0 0 1 3.446 0ZM15.16 29.249a1.723 1.723 0 1 1-3.445 0 1.723 1.723 0 0 1 3.446 0Z"/><path fill="url(#b)" d="M26.585 9.21h6.71l-6.71-6.71v6.71Z"/><path fill="#fff" d="M22.015 15.512c.288 0 .432.148.432.444 0 .305-.148.457-.444.457l-3.846-.05c-.263-.01-.394-.162-.394-.458 0-.152.038-.262.114-.33a.44.44 0 0 1 .305-.114l1.447.025c.152-2.437.229-4.807.229-7.109-.381.009-.876.034-1.486.077l-.343.025c-.084 0-.16-.042-.228-.127a.512.512 0 0 1-.101-.33c0-.245.135-.394.406-.444.152-.026.478-.051.977-.076.5-.026.986-.039 1.46-.039.71 0 1.214.026 1.51.077a.623.623 0 0 1 .293.127c.067.05.101.152.101.304a.463.463 0 0 1-.127.343c-.076.076-.182.11-.317.102-.33-.026-.72-.043-1.168-.051 0 1.37-.017 2.61-.05 3.72a71.053 71.053 0 0 1-.191 3.414l1.421.013Z"/><defs><linearGradient id="a" x1="7.996" x2="33.359" y1="10.2" y2="12.065" gradientUnits="userSpaceOnUse"><stop stop-color="#82E12F"/><stop offset="1" stop-color="#2CB735"/></linearGradient><linearGradient id="b" x1="26.84" x2="33.285" y1="3.976" y2="4.607" gradientUnits="userSpaceOnUse"><stop stop-color="#82E12F"/><stop offset="1" stop-color="#2CB735"/></linearGradient></defs></svg>