<svg xmlns="http://www.w3.org/2000/svg" width="40" height="40" fill="none"><path fill="url(#a)" d="M5.092 14.385c-1.388-1.698-.18-4.246 2.013-4.246h25.597c2.194 0 3.402 2.548 2.013 4.246L23.967 27.53H15.84L5.092 14.385Z"/><path fill="url(#b)" d="M15.84 32.973V27.53h8.127v7.882c0 1.382-1.746 2.602-2.844 1.87-1.22-.813-5.282-3.739-5.282-4.308Z"/><g filter="url(#c)"><path fill="#03D9C4" fill-opacity=".4" d="M35.32 29.41a7.91 7.91 0 1 1-15.82 0 7.91 7.91 0 0 1 15.82 0Z"/></g><path fill="url(#d)" d="M22.262 7.478c0 1.35-1.09 2.443-2.434 2.443a2.438 2.438 0 0 1-2.434-2.443c0-1.349 1.09-2.443 2.434-2.443a2.438 2.438 0 0 1 2.434 2.443Z"/><path fill="#03D9C4" fill-opacity=".4" d="M17.27 4.355a1.852 1.852 0 0 1-1.848 1.855 1.852 1.852 0 0 1-1.85-1.855c0-1.024.829-1.855 1.85-1.855 1.02 0 1.848.83 1.848 1.855ZM26.206 4.355a1.852 1.852 0 0 1-1.849 1.855 1.852 1.852 0 0 1-1.849-1.855c0-1.024.828-1.855 1.85-1.855 1.02 0 1.848.83 1.848 1.855ZM12.464 9.192c0-1.237.999-2.24 2.231-2.234.816.005 1.598.012 1.836.025.555.031-.154 1.3.986 2.567H12.82a.358.358 0 0 1-.357-.358ZM27.253 9.192c0-1.237-.999-2.24-2.23-2.234-.817.005-1.599.012-1.837.025-.554.031.154 1.3-.986 2.567h4.696c.198 0 .357-.16.357-.358Z"/><path fill="url(#e)" d="M15.422 13.693a3.087 3.087 0 0 1 3.08-3.092h2.774a3.087 3.087 0 0 1 3.081 3.092v.124a.556.556 0 0 1-.555.556h-7.826a.556.556 0 0 1-.554-.556v-.124Z"/><path fill="#fff" d="M28.775 27.728c-.03-.323-.154-.575-.375-.755-.218-.18-.502-.27-.852-.27-.246 0-.457.043-.633.13a.966.966 0 0 0-.404.351.95.95 0 0 0-.143.507c0 .158.03.294.092.41.063.116.15.215.258.296.108.08.227.146.359.2.131.054.264.1.398.137l.61.177c.246.067.483.157.71.27.228.114.433.257.613.43.183.172.327.38.433.625.106.244.159.53.159.858 0 .444-.098.835-.293 1.173a2.021 2.021 0 0 1-.846.787c-.367.188-.81.282-1.332.282-.507 0-.947-.092-1.32-.274a2.047 2.047 0 0 1-.872-.8c-.208-.35-.32-.776-.337-1.279h1.16c.018.264.088.483.21.659.124.175.284.305.481.392.2.086.422.13.668.13.257 0 .481-.045.674-.134.195-.091.348-.217.458-.377a1.01 1.01 0 0 0 .169-.57.799.799 0 0 0-.15-.488 1.108 1.108 0 0 0-.41-.326 3.581 3.581 0 0 0-.61-.237l-.742-.222c-.536-.16-.96-.403-1.272-.728-.31-.328-.464-.764-.464-1.306 0-.446.104-.837.311-1.173.21-.335.496-.595.856-.78.36-.188.769-.281 1.225-.281.462 0 .867.093 1.215.28.35.186.624.444.823.774.2.328.303.705.309 1.132h-1.136Z"/><path fill="#fff" d="M26.97 33.042c0-.346.241-.625.538-.625.297 0 .537.28.537.625v.833c0 .345-.24.625-.537.625-.297 0-.537-.28-.537-.625v-.833ZM26.97 25.125c0-.345.241-.625.538-.625.297 0 .537.28.537.625v.833c0 .346-.24.625-.537.625-.297 0-.537-.28-.537-.625v-.833Z"/><defs><linearGradient id="a" x1="5.923" x2="37.382" y1="12.745" y2="26.569" gradientUnits="userSpaceOnUse"><stop stop-color="#03D9C4"/><stop offset="1" stop-color="#038F81"/></linearGradient><linearGradient id="b" x1="5.923" x2="37.382" y1="12.745" y2="26.569" gradientUnits="userSpaceOnUse"><stop stop-color="#03D9C4"/><stop offset="1" stop-color="#038F81"/></linearGradient><linearGradient id="d" x1="13.147" x2="27.721" y1="3.631" y2="10.716" gradientUnits="userSpaceOnUse"><stop stop-color="#03D9C4"/><stop offset="1" stop-color="#038F81"/></linearGradient><linearGradient id="e" x1="13.147" x2="27.721" y1="3.631" y2="10.716" gradientUnits="userSpaceOnUse"><stop stop-color="#03D9C4"/><stop offset="1" stop-color="#038F81"/></linearGradient><filter id="c" width="16.02" height="15.92" x="19.5" y="21.5" color-interpolation-filters="sRGB" filterUnits="userSpaceOnUse"><feFlood flood-opacity="0" result="BackgroundImageFix"/><feBlend in="SourceGraphic" in2="BackgroundImageFix" result="shape"/><feColorMatrix in="SourceAlpha" result="hardAlpha" values="0 0 0 0 0 0 0 0 0 0 0 0 0 0 0 0 0 0 127 0"/><feOffset dx=".2" dy=".1"/><feGaussianBlur stdDeviation=".5"/><feComposite in2="hardAlpha" k2="-1" k3="1" operator="arithmetic"/><feColorMatrix values="0 0 0 0 1 0 0 0 0 1 0 0 0 0 1 0 0 0 0.6 0"/><feBlend in2="shape" result="effect1_innerShadow_106_205"/></filter></defs></svg>