<svg xmlns="http://www.w3.org/2000/svg" width="40" height="40" fill="none"><path fill="url(#a)" d="M3.5 6.852A4.352 4.352 0 0 1 7.852 2.5h17.591c2.557 0 4.352 2 4.352 4.352v26.296a4.352 4.352 0 0 1-4.352 4.352H7.853A4.352 4.352 0 0 1 3.5 33.148V6.852Z"/><circle cx="30" cy="30.5" r="7.5" fill="#fff"/><path fill="#fff" d="M15.907 17.586c0-.486.41-.88.915-.88.505 0 .914.394.914.88v1.057c0 .486-.41.88-.915.88-.505 0-.914-.394-.914-.88v-1.057ZM15.907 6.88c0-.486.41-.88.915-.88.505 0 .914.394.914.88v.775c0 .486-.41.88-.915.88-.505 0-.914-.394-.914-.88V6.88Z"/><path fill="#fff" d="M20.894 14.844c0 .53-.129.986-.386 1.369-.246.372-.656.715-1.23 1.031a4.631 4.631 0 0 1-1.352.507 7.29 7.29 0 0 1-1.563.17c-.538 0-1.206-.17-2.002-.508-.573-.27-1.03-.591-1.37-.963-.327-.372-.491-.778-.491-1.217 0-.305.07-.524.21-.66.141-.146.37-.22.686-.22.163 0 .333.068.509.203.175.124.28.248.316.372.164.462.45.817.86 1.065.41.237.92.355 1.528.355.702 0 1.288-.124 1.756-.372.48-.248.72-.58.72-.997 0-.406-.258-.766-.773-1.082a5.292 5.292 0 0 0-1.58-.66 11.905 11.905 0 0 1-2.054-.726c-.621-.293-1.083-.654-1.388-1.082-.304-.428-.456-.879-.456-1.352 0-.44.158-.885.474-1.336.316-.462.69-.794 1.124-.997.234-.113.632-.231 1.194-.355.573-.135.989-.203 1.246-.203.34 0 .715.04 1.124.118.41.08.744.192 1.001.339.515.281.896.535 1.142.76a1.1 1.1 0 0 1 .369.845.732.732 0 0 1-.246.541c-.153.158-.422.237-.808.237a.437.437 0 0 1-.281-.118 3.68 3.68 0 0 1-.351-.355c-.188-.237-.37-.395-.545-.474a7.51 7.51 0 0 0-.772-.186 4.398 4.398 0 0 0-.878-.101c-.281 0-.574.056-.878.169a2.08 2.08 0 0 0-.773.49.982.982 0 0 0-.299.71c0 .226.106.423.317.592.222.158.485.287.79.389.351.135.731.253 1.141.355.539.157.978.304 1.317.44.351.123.69.28 1.019.473.573.326.989.664 1.247 1.014.257.338.386.811.386 1.42ZM8.5 23.997c0-.55.445-.997 1.255-.997h13.497c.81 0 1.248.447 1.248.997 0 .551-.438.998-1.248.998H9.755c-.81 0-1.255-.447-1.255-.998ZM8.5 28.997c0-.55.455-.997 1.265-.997H23.23c.81 0 1.27.447 1.27.997 0 .551-.46.998-1.27.998H9.765c-.81 0-1.265-.447-1.265-.998Z"/><path fill="#FC586B" fill-opacity=".4" stroke="#fff" stroke-width="1.5" d="M37.75 30.5a7.75 7.75 0 1 1-15.5 0 7.75 7.75 0 0 1 15.5 0Z"/><path fill="#fff" d="M28.5 27.726c0-.4.325-.726.726-.726h.29c.402 0 .727.325.727.726v2.76H28.5v-2.76Z"/><path fill="#fff" d="M29.226 32.228a.726.726 0 0 1-.726-.726v-1.017h3.63c.402 0 .727.326.727.727v.29a.726.726 0 0 1-.726.726h-2.905Z"/><defs><linearGradient id="a" x1="16.648" x2="16.648" y1="2.5" y2="37.5" gradientUnits="userSpaceOnUse"><stop stop-color="#FC586B"/><stop offset="1" stop-color="#EE181C"/></linearGradient></defs></svg>