<svg xmlns="http://www.w3.org/2000/svg" width="40" height="40" fill="none"><path fill="url(#a)" d="M2.5 12.588h35v19.56a5.353 5.353 0 0 1-5.353 5.352H7.853A5.353 5.353 0 0 1 2.5 32.147V12.588Z"/><path fill="#EFEFEF" d="M15.059 12.588h9.882V20a2.676 2.676 0 0 1-2.676 2.677h-4.53A2.676 2.676 0 0 1 15.06 20v-7.412Z"/><path fill="#21D4FD" fill-opacity=".4" d="M9.088 2.706c2.677-.309 19.34-.17 21.72 0 2.883.206 6.692 9.882 6.692 9.882h-35s3.912-9.573 6.588-9.882Z"/><path fill="#fff" d="M17.477 2.5h4.941l2.523 10.088H15.06L17.477 2.5Z"/><defs><linearGradient id="a" x1="4.444" x2="36.381" y1="8.1" y2="8.235" gradientUnits="userSpaceOnUse"><stop stop-color="#21D4FD"/><stop offset="1" stop-color="#2152FF"/></linearGradient></defs></svg>