<svg xmlns="http://www.w3.org/2000/svg" width="40" height="40" fill="none"><path fill="#FC586B" fill-opacity=".4" d="M2.5 18.51a3.7 3.7 0 0 1 3.7-3.7h20.967a3.7 3.7 0 0 1 3.7 3.7v11.98a3.7 3.7 0 0 1-3.7 3.7H6.2a3.7 3.7 0 0 1-3.7-3.7V18.51Z"/><path fill="#fff" d="M37.738 26.262c0 5.352-2.577 9.69-7.928 9.69-5.352 0-9.69-4.338-9.69-9.69 0-5.352 4.338-9.69 9.69-9.69 5.351 0 7.928 4.338 7.928 9.69Z"/><path fill="url(#a)" d="M37.738 26.262a7.929 7.929 0 1 1-15.857 0 7.929 7.929 0 0 1 15.857 0Z"/><path fill="#fff" d="M32.51 24.454c0 1.434-1.188 2.596-2.655 2.596-1.467 0-2.656-1.162-2.656-2.596 0-1.434 1.19-2.597 2.656-2.597 1.467 0 2.656 1.163 2.656 2.597ZM26.45 31.45c-.638-.367-.977-1.184-.466-1.713.73-.754 2.241-.832 2.768-.832h2.379c.705 0 2.907.139 2.907 1.85 0 .528-2.338 1.585-2.907 1.585h-2.379c-.376 0-1.49-.424-2.302-.89Z"/><path fill="#FC586B" fill-opacity=".4" d="M5.143 11.638c0-.681.552-1.233 1.233-1.233h20.438c.681 0 1.234.552 1.234 1.233v.176c0 .681-.552 1.234-1.234 1.234H6.376a1.233 1.233 0 0 1-1.233-1.234v-.176ZM7.786 7.233c0-.68.552-1.233 1.233-1.233h15.153c.68 0 1.233.552 1.233 1.233v.177c0 .68-.552 1.233-1.233 1.233H9.019A1.233 1.233 0 0 1 7.786 7.41v-.177Z"/><defs><linearGradient id="a" x1="28.929" x2="28.929" y1="16.571" y2="35.952" gradientUnits="userSpaceOnUse"><stop stop-color="#FC586B"/><stop offset="1" stop-color="#EE181C"/></linearGradient></defs></svg>