<svg xmlns="http://www.w3.org/2000/svg" width="40" height="40" fill="none"><path fill="url(#a)" d="M7 6.852A4.352 4.352 0 0 1 11.352 2.5h15.233l6.71 6.71v23.938a4.352 4.352 0 0 1-4.352 4.352h-17.59A4.352 4.352 0 0 1 7 33.148V6.852Z"/><path fill="#fff" d="M17.7 22.72c0-.55.446-.997.997-.997h8.886a.997.997 0 0 1 0 1.995h-8.886a.997.997 0 0 1-.997-.998ZM17.7 29.249c0-.551.446-.998.997-.998h8.886a.997.997 0 1 1 0 1.995h-8.886a.997.997 0 0 1-.997-.997ZM15.16 22.72a1.723 1.723 0 1 1-3.445 0 1.723 1.723 0 0 1 3.446 0ZM15.16 29.249a1.723 1.723 0 1 1-3.445 0 1.723 1.723 0 0 1 3.446 0Z"/><path fill="url(#b)" d="M26.585 9.21h6.71l-6.71-6.71v6.71Z"/><path fill="#fff" d="M15.588 8.04c.6 0 1.156.116 1.668.348.52.224.936.548 1.248.972.312.416.468.9.468 1.452a2.3 2.3 0 0 1-.408 1.344c-.272.384-.648.68-1.128.888-.472.208-1.012.312-1.62.312-.688 0-1.268-.124-1.74-.372l-.036 3.144a.431.431 0 0 1-.132.336.454.454 0 0 1-.336.12.515.515 0 0 1-.36-.12.438.438 0 0 1-.12-.324c0-.368.008-.912.024-1.632.016-.768.024-1.376.024-1.824 0-.824-.016-1.716-.048-2.676a1.939 1.939 0 0 1-.012-.252l-.036.024a.476.476 0 0 1-.204.06c-.112 0-.204-.052-.276-.156a.76.76 0 0 1-.096-.384c0-.096.032-.172.096-.228.064-.064.16-.128.288-.192l.204-.12v-.192c0-.184.04-.32.12-.408.08-.088.204-.132.372-.132.144 0 .256.024.336.072.08.048.12.112.12.192v.024a4.65 4.65 0 0 1 1.584-.276Zm.06 4.524c.456 0 .856-.076 1.2-.228.352-.152.624-.364.816-.636.192-.272.288-.58.288-.924 0-.368-.108-.696-.324-.984a2.142 2.142 0 0 0-.864-.672 2.78 2.78 0 0 0-1.164-.24c-.44 0-.968.14-1.584.42.016.56.024.928.024 1.104 0 .176.008.456.024.84.016.472.02.784.012.936.448.256.972.384 1.572.384Zm8.356 3.84c-.744 0-1.42-.144-2.028-.432a3.406 3.406 0 0 1-1.452-1.344c-.36-.608-.54-1.356-.54-2.244 0-.84.164-1.592.492-2.256a3.684 3.684 0 0 1 1.392-1.548c.6-.376 1.292-.564 2.076-.564.792 0 1.512.192 2.16.576.648.376 1.156.9 1.524 1.572.376.672.564 1.432.564 2.28 0 .856-.192 1.584-.576 2.184a3.594 3.594 0 0 1-1.536 1.332 4.833 4.833 0 0 1-2.076.444Zm.06-.852c.536 0 1.048-.108 1.536-.324a2.843 2.843 0 0 0 1.2-1.044c.312-.48.468-1.076.468-1.788 0-.672-.14-1.276-.42-1.812a3.135 3.135 0 0 0-1.176-1.26 3.15 3.15 0 0 0-1.68-.456c-.608 0-1.148.148-1.62.444a2.975 2.975 0 0 0-1.092 1.212c-.256.52-.384 1.12-.384 1.8 0 .76.156 1.384.468 1.872.312.48.708.828 1.188 1.044.48.208.984.312 1.512.312Z"/><defs><linearGradient id="a" x1="7" x2="37.867" y1="7.5" y2="15.233" gradientUnits="userSpaceOnUse"><stop stop-color="#E92FED"/><stop offset="1" stop-color="#7C15CD"/></linearGradient><linearGradient id="b" x1="26.585" x2="34.118" y1="3.459" y2="5.971" gradientUnits="userSpaceOnUse"><stop stop-color="#E92FED"/><stop offset="1" stop-color="#7C15CD"/></linearGradient></defs></svg>