<svg xmlns="http://www.w3.org/2000/svg" width="40" height="40" fill="none"><path fill="url(#a)" d="M7 6.852A4.352 4.352 0 0 1 11.352 2.5h15.233l6.71 6.71v23.938a4.352 4.352 0 0 1-4.352 4.352h-17.59A4.352 4.352 0 0 1 7 33.148V6.852Z"/><path fill="#fff" d="M17.7 22.72c0-.55.446-.997.997-.997h8.886a.997.997 0 0 1 0 1.995h-8.886a.997.997 0 0 1-.997-.998ZM17.7 29.249c0-.551.446-.998.997-.998h8.886a.997.997 0 1 1 0 1.995h-8.886a.997.997 0 0 1-.997-.997ZM15.16 22.72a1.723 1.723 0 1 1-3.445 0 1.723 1.723 0 0 1 3.446 0ZM15.16 29.249a1.723 1.723 0 1 1-3.445 0 1.723 1.723 0 0 1 3.446 0ZM23.981 15.512c.11.11.165.228.165.355 0 .136-.05.254-.152.355a.487.487 0 0 1-.355.153.482.482 0 0 1-.356-.14l-.698-.698c-.39.288-.825.512-1.308.673a4.866 4.866 0 0 1-1.498.228c-.812 0-1.527-.182-2.145-.545a3.738 3.738 0 0 1-1.434-1.511c-.33-.652-.495-1.392-.495-2.222 0-.922.198-1.73.596-2.424.398-.694.919-1.227 1.562-1.6a4.15 4.15 0 0 1 4.176.013c.669.38 1.206.914 1.612 1.6.415.676.622 1.442.622 2.297 0 1.083-.321 2.019-.965 2.806l.673.66Zm-4.189.025a3.508 3.508 0 0 0 2.095-.685l-.94-.927c-.093-.093-.14-.186-.14-.28 0-.126.064-.245.191-.355.136-.118.267-.178.394-.178a.32.32 0 0 1 .216.077l.99.977a3.484 3.484 0 0 0 .698-2.133c0-.66-.157-1.26-.47-1.802a3.583 3.583 0 0 0-1.231-1.282 3.022 3.022 0 0 0-1.612-.47c-.55 0-1.08.148-1.587.444-.508.297-.923.724-1.244 1.282-.313.55-.47 1.194-.47 1.93 0 .66.131 1.248.394 1.764.262.517.63.919 1.104 1.206a3.044 3.044 0 0 0 1.612.432Z"/><path fill="url(#b)" d="M26.585 9.21h6.71l-6.71-6.71v6.71Z"/><defs><linearGradient id="a" x1="8.215" x2="37.715" y1="5.833" y2="14.483" gradientUnits="userSpaceOnUse"><stop stop-color="#03D9C4"/><stop offset="1" stop-color="#038F81"/></linearGradient><linearGradient id="b" x1="26.895" x2="33.99" y1="3.139" y2="5.908" gradientUnits="userSpaceOnUse"><stop stop-color="#03D9C4"/><stop offset="1" stop-color="#038F81"/></linearGradient></defs></svg>