<svg xmlns="http://www.w3.org/2000/svg" width="40" height="40" fill="none"><path fill="#9CACCC" fill-opacity=".4" d="M7.853 18.238c0-.512.415-.927.927-.927h6.573c.513 0 .928.415.928.927v3.726a.927.927 0 0 1-.928.928H8.78a.927.927 0 0 1-.927-.928v-3.726ZM7.853 25.072c0-.512.415-.927.927-.927h6.573c.513 0 .928.415.928.927v3.726a.927.927 0 0 1-.928.927H8.78a.927.927 0 0 1-.927-.927v-3.726ZM17.42 25.072c0-.512.415-.927.927-.927h5.206c.513 0 .928.415.928.927v3.726a.927.927 0 0 1-.928.927h-5.206a.927.927 0 0 1-.927-.927v-3.726Z"/><path fill="url(#a)" d="M2.5 14.806h27.334v14.133c0 .436-.35.791-.787.797l-2.562.035a.797.797 0 0 1-.808-.797V17.482a1.48 1.48 0 0 0-1.48-1.48H8.023a1.48 1.48 0 0 0-1.48 1.48v11.4c0 .436-.351.791-.787.797l-2.449.035a.797.797 0 0 1-.808-.797V14.805Z"/><path fill="url(#b)" d="M2.557 14.862a2.34 2.34 0 0 1 1.484-2.178L15.75 8.08c.267-.105.565-.105.833 0l11.71 4.605a2.34 2.34 0 0 1 1.483 2.178H2.557Z"/><circle cx="29.274" cy="24.573" r="8.226" fill="url(#c)"/><path fill="#fff" d="M25.685 24.193a.5.5 0 1 0 0 1v-1Zm7.773.854a.5.5 0 0 0 0-.707l-3.182-3.182a.5.5 0 0 0-.707.707l2.828 2.828-2.828 2.829a.5.5 0 1 0 .707.707l3.182-3.182Zm-7.773.146h7.42v-1h-7.42v1Z"/><defs><linearGradient id="a" x1="16.167" x2="16.167" y1="8" y2="29.771" gradientUnits="userSpaceOnUse"><stop stop-color="#9CACCC"/><stop offset="1" stop-color="#7487A6"/></linearGradient><linearGradient id="b" x1="16.167" x2="16.167" y1="8" y2="29.771" gradientUnits="userSpaceOnUse"><stop stop-color="#9CACCC"/><stop offset="1" stop-color="#7487A6"/></linearGradient><linearGradient id="c" x1="29.274" x2="29.274" y1="16.347" y2="32.799" gradientUnits="userSpaceOnUse"><stop stop-color="#9CACCC"/><stop offset="1" stop-color="#7487A6"/></linearGradient></defs></svg>