<svg xmlns="http://www.w3.org/2000/svg" width="40" height="40" fill="none"><path fill="url(#a)" d="M7 6.852A4.352 4.352 0 0 1 11.352 2.5h15.233l6.71 6.71v23.938a4.352 4.352 0 0 1-4.352 4.352h-17.59A4.352 4.352 0 0 1 7 33.148V6.852Z"/><path fill="#fff" d="M17.7 22.72c0-.55.446-.997.997-.997h8.886a.997.997 0 0 1 0 1.995h-8.886a.997.997 0 0 1-.997-.998ZM17.7 29.249c0-.551.446-.998.997-.998h8.886a.997.997 0 1 1 0 1.995h-8.886a.997.997 0 0 1-.997-.997ZM15.16 22.72a1.723 1.723 0 1 1-3.445 0 1.723 1.723 0 0 1 3.446 0ZM15.16 29.249a1.723 1.723 0 1 1-3.445 0 1.723 1.723 0 0 1 3.446 0Z"/><path fill="url(#b)" d="M26.585 9.21h6.71l-6.71-6.71v6.71Z"/><path fill="#fff" d="M15.24 16.451c-.617 0-1.146-.123-1.586-.368a2.596 2.596 0 0 1-1.003-1.003c-.22-.423-.33-.88-.33-1.37 0-.153.034-.272.101-.356.076-.085.203-.127.381-.127.33 0 .495.14.495.419 0 .397.09.74.267 1.028.178.288.415.508.71.66.297.152.618.228.965.228.508 0 .923-.118 1.245-.355.33-.237.495-.58.495-1.028 0-.33-.09-.601-.267-.813a1.826 1.826 0 0 0-.698-.52 8.24 8.24 0 0 0-1.105-.406 10.317 10.317 0 0 1-1.231-.42 2.878 2.878 0 0 1-.952-.723c-.288-.33-.432-.766-.432-1.307 0-.483.127-.914.381-1.295.254-.381.593-.677 1.016-.889a3.078 3.078 0 0 1 1.396-.317c.525 0 .999.114 1.422.343.431.228.766.529 1.003.9.245.373.368.767.368 1.181 0 .187-.038.318-.114.394-.068.076-.187.114-.356.114-.195 0-.326-.038-.393-.114a.461.461 0 0 1-.102-.317c0-.449-.17-.83-.508-1.143-.338-.313-.778-.47-1.32-.47-.541 0-.982.157-1.32.47-.33.305-.495.69-.495 1.155 0 .313.089.572.266.775.187.194.415.347.686.457.28.11.673.24 1.18.393.432.136.821.288 1.168.457a2.6 2.6 0 0 1 .952.762c.28.347.42.787.42 1.32 0 .457-.12.859-.356 1.206-.229.347-.55.614-.965.8-.406.186-.867.279-1.384.279ZM23.625 16.362c-.787 0-1.502-.152-2.146-.457a3.602 3.602 0 0 1-1.536-1.422c-.38-.643-.57-1.434-.57-2.373 0-.889.173-1.684.52-2.387a3.898 3.898 0 0 1 1.472-1.638c.635-.397 1.367-.596 2.196-.596.838 0 1.6.203 2.285.61a4.233 4.233 0 0 1 1.612 1.662c.398.711.597 1.515.597 2.412 0 .906-.203 1.676-.61 2.31a3.801 3.801 0 0 1-1.624 1.41c-.669.313-1.4.47-2.196.47Zm.063-.901c.567 0 1.109-.114 1.625-.343.516-.237.94-.605 1.27-1.104.33-.508.495-1.138.495-1.892 0-.71-.148-1.35-.445-1.917a3.316 3.316 0 0 0-1.244-1.332 3.332 3.332 0 0 0-1.777-.483c-.643 0-1.214.157-1.714.47-.49.305-.876.732-1.155 1.282-.27.55-.406 1.185-.406 1.904 0 .804.165 1.464.495 1.98.33.508.749.876 1.257 1.105.508.22 1.04.33 1.6.33Z"/><defs><linearGradient id="a" x1="7.809" x2="36.969" y1="6.667" y2="14.964" gradientUnits="userSpaceOnUse"><stop stop-color="#FAB534"/><stop offset="1" stop-color="#F64F39"/></linearGradient><linearGradient id="b" x1="26.792" x2="33.826" y1="3.299" y2="5.963" gradientUnits="userSpaceOnUse"><stop stop-color="#FAB534"/><stop offset="1" stop-color="#F64F39"/></linearGradient></defs></svg>