<svg xmlns="http://www.w3.org/2000/svg" width="40" height="40" fill="none"><path fill="url(#a)" d="M27.712 20.097a8.199 8.199 0 1 1-16.398 0 8.199 8.199 0 0 1 16.398 0Z"/><path fill="url(#b)" d="M16.622 10.643a1.72 1.72 0 0 1 1.705-1.497h2.404c.874 0 1.61.656 1.709 1.524l.226 1.973c-2.523-.974-4.53-.745-6.306 0l.262-2Z"/><path fill="url(#c)" d="M9.882 18.021a1.72 1.72 0 0 1-.477-2.218l1.17-2.1a1.72 1.72 0 0 1 2.162-.75l1.835.761c-2.08 1.73-2.855 3.595-3.07 5.51l-1.62-1.203Z"/><path fill="url(#d)" d="M12.82 27.405a1.72 1.72 0 0 1-2.157-.702l-1.227-2.067a1.72 1.72 0 0 1 .437-2.247l1.582-1.203c.45 2.667 1.671 4.275 3.22 5.423l-1.855.796Z"/><path fill="url(#e)" d="M22.404 29.609a1.72 1.72 0 0 1-1.706 1.496h-2.403a1.72 1.72 0 0 1-1.709-1.524l-.226-1.973c2.522.974 4.529.745 6.306 0l-.262 2Z"/><path fill="url(#f)" d="M29.157 22.425a1.72 1.72 0 0 1 .428 2.228l-1.215 2.074a1.72 1.72 0 0 1-2.179.703l-1.817-.802c2.117-1.684 2.934-3.531 3.19-5.441l1.593 1.238Z"/><path fill="url(#g)" d="M26.365 12.868a1.72 1.72 0 0 1 2.145.739l1.192 2.087a1.72 1.72 0 0 1-.476 2.24l-1.6 1.175c-.406-2.674-1.6-4.302-3.129-5.476l1.868-.765Z"/><circle cx="19.456" cy="20.154" r="3.44" fill="#fff"/><circle cx="19.565" cy="20.097" r="2.121" fill="#FAB534" fill-opacity=".4"/><path fill="url(#h)" d="M23.84 35.075C30.462 33.26 35.328 27.198 35.328 20c0-7.198-4.866-13.26-11.488-15.075V3.819C31.059 5.661 36.397 12.207 36.397 20c0 7.793-5.338 14.339-12.557 16.181v-1.106Z"/><path fill="url(#i)" d="M25.977 4.504a2.004 2.004 0 1 1-4.007 0 2.004 2.004 0 0 1 4.007 0Z"/><path fill="url(#j)" d="M19.298 3.836a.534.534 0 1 1-1.069 0 .534.534 0 0 1 1.069 0Z"/><path fill="url(#k)" d="M21.435 36.164a.534.534 0 1 1-1.069 0 .534.534 0 0 1 1.07 0Z"/><path fill="url(#l)" fill-rule="evenodd" d="M3 20C3 12.207 8.338 5.661 15.557 3.82v1.105C8.935 6.74 4.07 12.802 4.07 20c0 6.514 3.984 12.097 9.649 14.445-.186.3-.295.654-.298 1.033C7.31 32.997 3 27 3 20Zm10.42 15.478c.69.28 1.404.516 2.137.703v-1.106a15.508 15.508 0 0 1-1.84-.63 2.003 2.003 0 0 1 3.71 1.051 2.004 2.004 0 0 1-4.007 0v-.018Z" clip-rule="evenodd"/><path fill="url(#m)" d="M15.557 36.181v-1.106a15.508 15.508 0 0 1-1.84-.63c-.185.3-.294.654-.297 1.033.69.28 1.404.516 2.137.703Z"/><defs><linearGradient id="a" x1="9.826" x2="31.868" y1="11.76" y2="19.645" gradientUnits="userSpaceOnUse"><stop stop-color="#FAB534"/><stop offset="1" stop-color="#F64F39"/></linearGradient><linearGradient id="b" x1="9.826" x2="31.868" y1="11.76" y2="19.645" gradientUnits="userSpaceOnUse"><stop stop-color="#FAB534"/><stop offset="1" stop-color="#F64F39"/></linearGradient><linearGradient id="c" x1="9.826" x2="31.868" y1="11.76" y2="19.645" gradientUnits="userSpaceOnUse"><stop stop-color="#FAB534"/><stop offset="1" stop-color="#F64F39"/></linearGradient><linearGradient id="d" x1="9.826" x2="31.868" y1="11.76" y2="19.645" gradientUnits="userSpaceOnUse"><stop stop-color="#FAB534"/><stop offset="1" stop-color="#F64F39"/></linearGradient><linearGradient id="e" x1="9.826" x2="31.868" y1="11.76" y2="19.645" gradientUnits="userSpaceOnUse"><stop stop-color="#FAB534"/><stop offset="1" stop-color="#F64F39"/></linearGradient><linearGradient id="f" x1="9.826" x2="31.868" y1="11.76" y2="19.645" gradientUnits="userSpaceOnUse"><stop stop-color="#FAB534"/><stop offset="1" stop-color="#F64F39"/></linearGradient><linearGradient id="g" x1="9.826" x2="31.868" y1="11.76" y2="19.645" gradientUnits="userSpaceOnUse"><stop stop-color="#FAB534"/><stop offset="1" stop-color="#F64F39"/></linearGradient><linearGradient id="h" x1="4.027" x2="39.437" y1="6.667" y2="19.463" gradientUnits="userSpaceOnUse"><stop stop-color="#FAB534"/><stop offset="1" stop-color="#F64F39"/></linearGradient><linearGradient id="i" x1="4.027" x2="39.437" y1="6.667" y2="19.463" gradientUnits="userSpaceOnUse"><stop stop-color="#FAB534"/><stop offset="1" stop-color="#F64F39"/></linearGradient><linearGradient id="j" x1="4.027" x2="39.437" y1="6.667" y2="19.463" gradientUnits="userSpaceOnUse"><stop stop-color="#FAB534"/><stop offset="1" stop-color="#F64F39"/></linearGradient><linearGradient id="k" x1="4.027" x2="39.437" y1="6.667" y2="19.463" gradientUnits="userSpaceOnUse"><stop stop-color="#FAB534"/><stop offset="1" stop-color="#F64F39"/></linearGradient><linearGradient id="l" x1="4.027" x2="39.437" y1="6.667" y2="19.463" gradientUnits="userSpaceOnUse"><stop stop-color="#FAB534"/><stop offset="1" stop-color="#F64F39"/></linearGradient><linearGradient id="m" x1="4.027" x2="39.437" y1="6.667" y2="19.463" gradientUnits="userSpaceOnUse"><stop stop-color="#FAB534"/><stop offset="1" stop-color="#F64F39"/></linearGradient></defs></svg>