<svg xmlns="http://www.w3.org/2000/svg" width="40" height="40" fill="none"><path fill="#03D9C4" fill-opacity=".4" d="M20.142 9.573a1.541 1.541 0 0 0 .992-2.72h7.617a4.533 4.533 0 0 1 4.532 4.533v21.58a4.533 4.533 0 0 1-4.532 4.534h-17.22A4.533 4.533 0 0 1 7 32.966v-21.58a4.533 4.533 0 0 1 4.532-4.534h7.617a1.541 1.541 0 0 0 .993 2.72Z"/><path fill="url(#a)" fill-rule="evenodd" d="M27.664 12.111V9.754a2.72 2.72 0 0 0-2.719-2.72c0-2.504-1.631-4.262-4.17-4.534h-1.45c-2.356.272-4.168 2.03-4.168 4.534a2.72 2.72 0 0 0-2.72 2.72v2.357c0 .802.65 1.451 1.451 1.451h12.326c.8 0 1.45-.65 1.45-1.45ZM20.14 9.573a1.541 1.541 0 1 0 0-3.083 1.541 1.541 0 0 0 0 3.083Z" clip-rule="evenodd"/><path fill="#fff" d="M10.988 20.816c0-.601.487-1.088 1.087-1.088h7.25a1.088 1.088 0 1 1 0 2.175h-7.25c-.6 0-1.087-.487-1.087-1.087ZM10.988 26.8c0-.6.487-1.088 1.087-1.088h13.958a1.088 1.088 0 0 1 0 2.176H12.075c-.6 0-1.087-.487-1.087-1.088Z"/><defs><linearGradient id="a" x1="13.141" x2="27.538" y1="3.554" y2="11.287" gradientUnits="userSpaceOnUse"><stop stop-color="#03D9C4"/><stop offset="1" stop-color="#038F81"/></linearGradient></defs></svg>