<svg xmlns="http://www.w3.org/2000/svg" width="40" height="40" fill="none"><path fill="url(#a)" d="M5.854 7.604C5.854 6.718 6.572 6 7.458 6h10.938C19.282 6 20 6.718 20 7.604v10.792c0 .886-.718 1.604-1.604 1.604H7.458a1.604 1.604 0 0 1-1.604-1.604V7.604Z"/><path fill="url(#b)" d="M23.354 11.104c0-.886.718-1.604 1.604-1.604h7.438c.886 0 1.604.718 1.604 1.604v7.292c0 .886-.718 1.604-1.604 1.604h-7.438a1.604 1.604 0 0 1-1.604-1.604v-7.292Z"/><path fill="#03D9C4" fill-opacity=".4" d="M2.5 28.75c0-2.9 2.35-5.25 5.25-5.25h24.5a5.25 5.25 0 1 1 0 10.5H7.75a5.25 5.25 0 0 1-5.25-5.25Z"/><path fill="#fff" d="M11.25 28.75a1.75 1.75 0 1 1-3.5 0 1.75 1.75 0 0 1 3.5 0ZM21.75 28.75a1.75 1.75 0 1 1-3.5 0 1.75 1.75 0 0 1 3.5 0ZM32.25 28.75a1.75 1.75 0 1 1-3.5 0 1.75 1.75 0 0 1 3.5 0Z"/><defs><linearGradient id="a" x1="4.117" x2="38.561" y1="8.667" y2="25.47" gradientUnits="userSpaceOnUse"><stop stop-color="#03D9C4"/><stop offset="1" stop-color="#038F81"/></linearGradient><linearGradient id="b" x1="4.117" x2="38.561" y1="8.667" y2="25.47" gradientUnits="userSpaceOnUse"><stop stop-color="#03D9C4"/><stop offset="1" stop-color="#038F81"/></linearGradient></defs></svg>